<svg width="37" height="36" viewBox="0 0 37 36" fill="none" xmlns="http://www.w3.org/2000/svg">
<path d="M31.3675 11.7627C31.3408 11.7576 31.3143 11.7533 31.2872 11.7493L26.0617 10.9899L23.724 6.25303C23.6791 6.16209 23.6353 6.07417 23.5932 5.99042C23.5542 5.91255 23.5163 5.83846 23.478 5.76457C23.4756 5.75945 23.4659 5.74051 23.4631 5.73539C23.4227 5.65771 23.3831 5.58343 23.3467 5.51693C23.3433 5.5103 23.3325 5.4904 23.3291 5.48396C23.2865 5.4059 23.2442 5.33162 23.2077 5.26948C23.2037 5.26228 23.1931 5.24409 23.1887 5.2367C23.1442 5.16072 23.0995 5.08834 23.0553 5.01937C23.0487 5.00857 23.0402 4.99531 23.0347 4.98678C22.99 4.91762 22.9447 4.8515 22.8922 4.7776C22.8838 4.76548 22.8729 4.74994 22.8651 4.73952C22.8084 4.66127 22.7506 4.58737 22.6921 4.51594C22.6858 4.50836 22.6794 4.5004 22.6728 4.49225C22.6101 4.41722 22.546 4.34598 22.4806 4.27777C22.4708 4.26735 22.4589 4.25503 22.4505 4.24651C22.3819 4.17659 22.309 4.108 22.2321 4.04093C22.2222 4.03221 22.2114 4.02293 22.2031 4.01573C22.1212 3.946 22.0341 3.87836 21.9566 3.8236C21.9497 3.81868 21.9346 3.80788 21.928 3.80314C21.8368 3.73948 21.7398 3.67828 21.6396 3.62162C21.6392 3.62143 21.639 3.62124 21.6386 3.62105C21.6348 3.61878 21.631 3.6167 21.6271 3.61461C21.5282 3.5591 21.4232 3.5068 21.3152 3.45905C21.3112 3.45735 21.3072 3.45564 21.3034 3.45394C20.8464 3.25423 20.3307 3.13581 19.7261 3.09204C19.6241 3.08465 19.5237 3.08105 19.4252 3.08105C16.7794 3.08105 15.5059 5.48188 15.3663 5.76211L12.7862 10.9899L7.51412 11.7561C7.49441 11.7589 7.4749 11.7622 7.45557 11.7656C6.04096 12.0189 4.43783 12.3061 3.50978 14.1876C3.49084 14.2253 3.47227 14.2636 3.45446 14.3015C3.43324 14.3468 3.4122 14.3924 3.39667 14.429C3.35707 14.5188 3.31823 14.6115 3.27957 14.7123C3.23599 14.8267 3.19696 14.947 3.16343 15.0692C3.14997 15.1168 3.13747 15.1644 3.12212 15.2271C3.10867 15.2847 3.0973 15.3417 3.08764 15.3915C3.06338 15.5158 3.04481 15.6403 3.03269 15.762C3.03193 15.7686 3.03136 15.775 3.03079 15.7817C2.86159 17.5546 3.90294 18.9002 4.35863 19.3966C4.38098 19.4211 4.40429 19.4448 4.42797 19.4681L8.68336 23.6164L7.70056 29.3444C7.68825 29.416 7.68029 29.4886 7.67688 29.5613C7.61852 30.7597 7.54595 32.2515 8.93157 33.5192L8.95867 33.5437C9.01778 33.5969 9.07898 33.6504 9.14397 33.703C9.16519 33.7203 9.18755 33.7379 9.2101 33.7553L10.3166 32.3358L9.22601 33.768L9.24079 33.7796C9.2838 33.8133 9.32738 33.8468 9.37096 33.8789C9.45073 33.9376 9.53429 33.9961 9.62561 34.0566C9.72604 34.1231 9.8329 34.1869 9.94829 34.2493C9.98391 34.2684 10.0193 34.286 10.058 34.3046C10.1283 34.3398 10.199 34.374 10.2666 34.4031C10.3128 34.423 10.3591 34.441 10.415 34.4621C10.4161 34.4626 10.432 34.4687 10.4333 34.4691C10.4849 34.4892 10.537 34.5085 10.59 34.5263C10.6474 34.5452 10.7041 34.5619 10.7613 34.578C10.763 34.5784 10.7863 34.585 10.788 34.5854C10.829 34.5972 10.8701 34.6083 10.9006 34.6157C10.9733 34.6339 11.0459 34.6489 11.124 34.6637C11.1535 34.6695 11.1833 34.675 11.2119 34.6798C11.2918 34.693 11.3714 34.7035 11.4588 34.7129L11.5042 34.7177C11.592 34.726 11.6788 34.7315 11.7653 34.7341C11.7737 34.7345 11.7828 34.7347 11.7879 34.7349C12.7085 34.7601 13.5218 34.4848 14.0261 34.2544C14.057 34.2402 14.0875 34.2254 14.1177 34.2095L14.4909 34.0128C14.501 34.0075 14.5108 34.0022 14.5209 33.9967C14.5328 33.9907 14.5447 33.9846 14.5565 33.9783L19.4244 31.4195L24.282 33.9732C24.2894 33.977 24.2966 33.9808 24.304 33.9846C24.3045 33.985 24.3049 33.9852 24.3055 33.9853L24.7706 34.2302C24.8066 34.2491 24.8434 34.2669 24.8807 34.2834C24.9324 34.3063 24.987 34.3294 25.0325 34.3478C25.0567 34.3577 25.0819 34.3677 25.1068 34.3772C25.1431 34.3914 25.1791 34.4054 25.2104 34.417C25.2394 34.4278 25.2691 34.4382 25.311 34.4526C25.3127 34.4532 25.3305 34.4594 25.3322 34.46L25.391 34.4799C25.4336 34.4941 25.4774 34.5075 25.5175 34.5199L25.5871 34.5407C25.6361 34.5549 25.6862 34.5685 25.7443 34.5835L25.7872 34.5943C25.8457 34.6089 25.9048 34.6224 25.9681 34.6356C25.9768 34.6375 25.9831 34.6387 25.9918 34.6404C26.3073 34.7048 26.6237 34.7376 26.9318 34.7376C27.7624 34.7376 28.5304 34.5087 29.2142 34.0568C31.1642 32.7672 31.2499 31.2889 31.1595 29.4905C31.1559 29.4187 31.1479 29.3474 31.1358 29.2765L30.1646 23.6164L34.5071 19.3836C34.5499 19.3417 34.5907 19.2977 34.6293 19.2519C34.6593 19.2163 34.692 19.1755 34.7265 19.1323L34.7464 19.1067C34.7735 19.0721 34.8014 19.0355 34.8368 18.9879L34.8595 18.9571C34.8876 18.9186 34.9164 18.8779 34.9484 18.8314L34.9764 18.7905C35.0126 18.7373 35.049 18.6816 35.0858 18.6232C35.0869 18.6211 35.1041 18.5935 35.1055 18.5916C35.1396 18.5362 35.1737 18.4788 35.2063 18.4218C35.2209 18.3964 35.2351 18.3704 35.2493 18.3439L35.2614 18.3217C35.2809 18.2859 35.3001 18.2497 35.3194 18.2122C35.3393 18.1736 35.3588 18.1342 35.3777 18.0953C35.3946 18.0605 35.4109 18.0252 35.4293 17.9847C35.4497 17.9394 35.4702 17.8939 35.4903 17.8462C35.5009 17.821 35.5109 17.7954 35.5189 17.7747C35.5701 17.6478 35.6157 17.5186 35.6529 17.3975C35.6559 17.3882 35.6591 17.3778 35.6612 17.3713C35.6631 17.3653 35.665 17.3592 35.6667 17.3532C35.687 17.2851 35.705 17.2156 35.7262 17.13L35.7415 17.0655C35.7586 16.9915 35.7736 16.9166 35.7855 16.8467L35.7986 16.7665C35.9193 15.9977 35.8312 15.2491 35.5371 14.5417C34.5827 12.2463 32.9557 11.9812 31.3675 11.7627Z" fill="white"/>
<path d="M31.208 11.6034C31.1815 11.5983 31.1548 11.5939 31.1277 11.5899L25.9022 10.8305L23.5645 6.09366C23.5196 6.00253 23.4758 5.9148 23.4339 5.83105C23.3949 5.75318 23.3562 5.67929 23.3189 5.6052C23.3162 5.60009 23.3066 5.58114 23.3039 5.57621C23.2636 5.49834 23.2228 5.42482 23.1876 5.35756C23.1842 5.35112 23.1734 5.33103 23.17 5.32478C23.1266 5.24691 23.0847 5.17263 23.0487 5.11011C23.0445 5.10272 23.0341 5.08472 23.0298 5.07733C22.9849 5.00173 22.9401 4.92935 22.8964 4.86C22.8896 4.8492 22.8812 4.83575 22.8759 4.82741C22.8314 4.75806 22.7853 4.69251 22.7332 4.61823C22.7247 4.6063 22.7137 4.59057 22.7061 4.58015C22.6493 4.50209 22.5917 4.42781 22.5332 4.35657C22.5269 4.34899 22.5205 4.34103 22.5136 4.33289C22.4513 4.25766 22.3869 4.18661 22.3217 4.1184C22.3117 4.10798 22.2999 4.09566 22.2914 4.08714C22.2228 4.01722 22.1497 3.94901 22.0729 3.88156C22.0631 3.87284 22.0523 3.86356 22.0439 3.85636C21.9623 3.78644 21.8742 3.72013 21.7974 3.66442C21.7906 3.6595 21.7754 3.6487 21.7688 3.64396C21.6777 3.5803 21.5805 3.5191 21.4804 3.46263C21.4801 3.46244 21.4801 3.46225 21.4797 3.46206C21.4759 3.45998 21.4721 3.45771 21.4681 3.45543C21.3692 3.39973 21.2639 3.34838 21.1562 3.30006C21.1523 3.29836 21.1485 3.29646 21.1445 3.29476C20.6869 3.096 20.1717 2.97663 19.5669 2.93286C19.465 2.92529 19.3646 2.92188 19.2661 2.92188C16.6204 2.92188 15.3468 5.3227 15.2073 5.60293L12.6269 10.8305L7.3548 11.5965C7.33509 11.5994 7.31577 11.6026 7.29606 11.606C5.88164 11.8593 4.28362 12.1492 3.35046 14.0281C3.3317 14.066 3.31295 14.1039 3.29532 14.1419C3.27429 14.1872 3.25326 14.2331 3.23735 14.2695C3.19812 14.3595 3.15909 14.4521 3.12044 14.5527C3.07705 14.6672 3.03821 14.7879 3.00429 14.9095C2.99103 14.9572 2.97796 15.0044 2.96299 15.0673C2.94916 15.1249 2.93836 15.182 2.92869 15.2318C2.90482 15.3563 2.8872 15.4808 2.87375 15.6024C2.87299 15.6088 2.87242 15.6155 2.87166 15.6221C2.71705 17.3963 3.744 18.7407 4.19949 19.2371C4.22204 19.2613 4.24516 19.2852 4.26884 19.3085L8.52423 23.457L7.54143 29.1846C7.52911 29.2564 7.52116 29.3288 7.51775 29.4018C7.45939 30.6002 7.38682 32.0917 8.77244 33.3597L8.79935 33.3843C8.85846 33.4376 8.91985 33.4908 8.98484 33.5437C9.00606 33.5609 9.02823 33.5785 9.05078 33.596L10.1575 32.1764L9.06688 33.6087L9.08166 33.6202C9.12467 33.6539 9.16806 33.6877 9.21183 33.7197C9.29141 33.7782 9.37516 33.8368 9.46648 33.8974C9.5669 33.9639 9.67377 34.0278 9.78916 34.0901C9.82478 34.1094 9.8604 34.1265 9.89886 34.1452C9.96972 34.1799 10.0398 34.2148 10.1075 34.2438C10.1539 34.2637 10.1992 34.2839 10.2558 34.3027C10.257 34.3033 10.2729 34.3091 10.274 34.3097C10.3267 34.3275 10.3777 34.3491 10.4309 34.3669C10.4883 34.3861 10.5446 34.4044 10.6024 34.4187C10.6041 34.419 10.6272 34.4257 10.6291 34.426C10.6702 34.4372 10.7111 34.449 10.7418 34.4564C10.8146 34.4742 10.8872 34.4891 10.9652 34.5041C10.9948 34.5098 11.0245 34.5155 11.0531 34.5202C11.1333 34.5337 11.2127 34.5441 11.3 34.5534L11.3455 34.5581C11.4332 34.5664 11.5202 34.571 11.6066 34.5746C11.6151 34.575 11.624 34.5752 11.6291 34.5753C12.5498 34.6038 13.363 34.3252 13.8672 34.0948C13.8983 34.0806 13.9288 34.0659 13.9587 34.0499L14.332 33.8531C14.342 33.848 14.3521 33.8425 14.3619 33.837C14.3739 33.8309 14.3858 33.8248 14.3975 33.8188L19.2653 31.2599L24.1225 33.8135C24.1297 33.8173 24.1371 33.8214 24.1443 33.8247C24.1448 33.825 24.1452 33.8252 24.1458 33.8254L24.6109 34.0702C24.6469 34.0893 24.6835 34.107 24.7208 34.1235C24.7725 34.1466 24.8271 34.1697 24.8728 34.1881C24.897 34.1979 24.9222 34.2078 24.9469 34.2172C24.9832 34.2315 25.0192 34.2455 25.0503 34.257C25.0793 34.2676 25.1096 34.2767 25.1511 34.2927C25.1528 34.2934 25.1706 34.2995 25.1723 34.3L25.2309 34.3199C25.2735 34.3341 25.3171 34.3476 25.3575 34.3599L25.4272 34.3806C25.4762 34.3948 25.5263 34.4084 25.5844 34.4236L25.6273 34.4344C25.686 34.449 25.7449 34.4624 25.8082 34.4755C25.8169 34.4774 25.8234 34.4785 25.8321 34.4802C26.1479 34.5428 26.4638 34.5774 26.7719 34.5774C27.6025 34.5774 28.3705 34.3485 29.0543 33.8967C31.0043 32.6071 31.0902 31.129 30.9996 29.3303C30.996 29.2585 30.988 29.1873 30.9759 29.1164L30.0047 23.4563L34.3472 19.2234C34.39 19.1816 34.4308 19.1376 34.4694 19.0917C34.4994 19.0561 34.5321 19.0154 34.5664 18.9722L34.5863 18.9466C34.6134 18.9121 34.6413 18.8756 34.6767 18.828L34.6995 18.7969C34.7275 18.7585 34.7565 18.7179 34.7883 18.6715L34.8164 18.6306C34.8525 18.5773 34.8893 18.522 34.9257 18.4633C34.927 18.4612 34.9441 18.4335 34.9454 18.4314C34.9797 18.3763 35.0136 18.3189 35.0462 18.2619C35.0608 18.2365 35.075 18.2103 35.0892 18.184L35.1013 18.1618C35.1208 18.126 35.14 18.09 35.1593 18.0523C35.1792 18.0135 35.1987 17.9742 35.2175 17.9354C35.2343 17.9005 35.2506 17.8653 35.269 17.8247C35.2895 17.7795 35.3099 17.734 35.33 17.6862C35.3406 17.661 35.3505 17.6355 35.3586 17.6148C35.4085 17.4875 35.4537 17.3583 35.4926 17.2376C35.4956 17.2285 35.4988 17.2179 35.5007 17.2114C35.5026 17.2053 35.5045 17.1993 35.5064 17.1932C35.5263 17.125 35.5445 17.0557 35.5657 16.9702L35.5811 16.9058C35.5981 16.8317 35.6131 16.7569 35.6252 16.6869L35.6381 16.6068C35.7588 15.8379 35.6707 15.0893 35.3766 14.3818C34.423 12.0871 32.7962 11.8218 31.208 11.6034Z" fill="#F1F1F1"/>
<path d="M31.0485 11.4437C31.022 11.4386 30.9952 11.4342 30.9682 11.4302L25.7427 10.6708L23.4049 5.93381C23.36 5.84267 23.3163 5.75494 23.2742 5.6712C23.2352 5.59332 23.1963 5.51943 23.159 5.44534C23.1563 5.44023 23.1467 5.42128 23.144 5.41635C23.1027 5.33924 23.0637 5.26459 23.0279 5.1977C23.0243 5.19126 23.0137 5.17137 23.0101 5.16492C22.9671 5.08686 22.9244 5.01296 22.8886 4.95025C22.8844 4.94305 22.874 4.92486 22.8697 4.91766C22.8251 4.84168 22.78 4.76949 22.7363 4.70014C22.7295 4.68934 22.7209 4.67608 22.7156 4.66774C22.6709 4.59859 22.6254 4.53265 22.5731 4.45838C22.5646 4.44644 22.5536 4.43071 22.5462 4.42029C22.4896 4.34204 22.431 4.26871 22.3731 4.1969C22.367 4.18932 22.3604 4.18118 22.3537 4.17322C22.2914 4.098 22.2268 4.02694 22.1616 3.95873C22.1518 3.94831 22.1398 3.936 22.1315 3.92728C22.0633 3.85718 21.9898 3.78915 21.913 3.72189C21.9032 3.71318 21.8924 3.7037 21.884 3.69669C21.8026 3.6264 21.7144 3.55989 21.6375 3.50475C21.6307 3.50002 21.6155 3.48903 21.6087 3.48429C21.5172 3.4212 21.4206 3.35943 21.3203 3.30278C21.32 3.30259 21.3198 3.3024 21.3194 3.30221C21.3158 3.29993 21.3118 3.29785 21.308 3.29576C21.2084 3.24176 21.1038 3.18852 20.9962 3.14021C20.9922 3.1385 20.9884 3.1368 20.9844 3.13509C20.528 2.93387 20.0116 2.81697 19.4068 2.7732C19.3051 2.76581 19.2047 2.76221 19.1062 2.76221C16.4603 2.76221 15.1869 5.16303 15.0474 5.44326L12.4672 10.6708L7.19489 11.4371C7.17537 11.4397 7.15586 11.4429 7.13615 11.4464C5.72116 11.6968 4.11879 11.9871 3.19055 13.8686C3.1718 13.9065 3.15285 13.9446 3.13523 13.9825C3.11401 14.0277 3.09316 14.0736 3.07744 14.11C3.03841 14.2 2.999 14.2924 2.96053 14.3932C2.91695 14.5075 2.87811 14.628 2.84439 14.75C2.83112 14.7978 2.81805 14.8451 2.80308 14.9078C2.78944 14.9654 2.77826 15.0225 2.76879 15.0725C2.74453 15.1968 2.72577 15.3211 2.71384 15.4429C2.71327 15.4494 2.71251 15.456 2.71194 15.4626C2.54274 17.2355 3.58428 18.5812 4.03996 19.0776C4.06251 19.102 4.08563 19.1257 4.1095 19.149L8.3647 23.2976L7.38209 29.0253C7.36977 29.0972 7.36182 29.1695 7.35841 29.2423C7.30005 30.4407 7.22748 31.9324 8.6131 33.2002L8.6402 33.2246C8.69931 33.2781 8.7607 33.3313 8.82569 33.384C8.84691 33.4012 8.86927 33.4191 8.89163 33.4365L9.99834 32.0168L8.90773 33.449L8.92251 33.4605C8.96571 33.4943 9.00891 33.528 9.05268 33.5598C9.13245 33.6186 9.21601 33.6773 9.30752 33.7377C9.40794 33.8041 9.51462 33.8683 9.63001 33.9306C9.66563 33.9498 9.70125 33.967 9.73971 33.9858C9.81038 34.0204 9.88049 34.0551 9.94832 34.0841C9.99474 34.1042 10.0404 34.1231 10.0969 34.1432C10.0978 34.1434 10.1139 34.1497 10.1151 34.1502C10.167 34.1696 10.2187 34.1896 10.2719 34.2073C10.3292 34.2264 10.3856 34.244 10.443 34.259C10.4449 34.2594 10.468 34.2662 10.4699 34.2666C10.5109 34.2779 10.552 34.2893 10.5825 34.2967C10.6554 34.3145 10.728 34.3299 10.8061 34.3448C10.8356 34.3505 10.8654 34.3562 10.8938 34.3609C10.9739 34.3742 11.0533 34.3846 11.1407 34.3939L11.1862 34.3986C11.2739 34.407 11.3607 34.4121 11.4472 34.4151C11.4556 34.4155 11.4647 34.4157 11.4698 34.4159C12.3904 34.4361 13.2035 34.1658 13.7079 33.9354C13.7389 33.9213 13.7692 33.9062 13.7994 33.8903L14.1726 33.6936C14.1827 33.6883 14.1927 33.683 14.2026 33.6777C14.2145 33.6716 14.2264 33.6656 14.2382 33.6593L19.106 31.1005L23.9635 33.6542C23.9709 33.658 23.9779 33.6623 23.9855 33.6654C23.9859 33.6656 23.9864 33.6659 23.987 33.6661L24.452 33.9111C24.488 33.9301 24.5247 33.9479 24.562 33.9642C24.6138 33.9871 24.6683 34.01 24.7138 34.0286C24.7379 34.0384 24.7633 34.0485 24.7881 34.058C24.8245 34.072 24.8603 34.0862 24.8915 34.0977C24.9205 34.1085 24.9501 34.1193 24.9922 34.1336C24.9939 34.1341 25.0117 34.1404 25.0134 34.1409L25.0719 34.1608C25.1146 34.1751 25.1583 34.1885 25.1987 34.2008L25.2682 34.2215C25.3175 34.2359 25.3673 34.2495 25.4257 34.2645L25.4685 34.2753C25.527 34.2897 25.5862 34.3031 25.6494 34.3166C25.658 34.3185 25.6642 34.3196 25.6729 34.3213C25.9894 34.3825 26.3048 34.4185 26.6131 34.4185C27.4438 34.4185 28.2117 34.1896 28.8955 33.7377C30.8456 32.4482 30.9312 30.9701 30.8408 29.1716C30.837 29.0998 30.8291 29.0286 30.8169 28.9579L29.8457 23.2977L34.1883 19.0649C34.2313 19.023 34.2718 18.9791 34.3105 18.9334C34.3404 18.8978 34.3734 18.857 34.4077 18.8137L34.4276 18.7881C34.4547 18.7536 34.4825 18.717 34.5179 18.6695L34.5407 18.6384C34.5687 18.5997 34.5975 18.559 34.6295 18.5128L34.6576 18.472C34.6938 18.4186 34.7296 18.3627 34.7669 18.3045C34.7682 18.3025 34.7853 18.275 34.7866 18.2729C34.8209 18.2178 34.8548 18.16 34.8872 18.1031C34.9018 18.0777 34.916 18.0518 34.9304 18.0254L34.9424 18.0031C34.9619 17.9673 34.981 17.9313 35.0003 17.8936C35.0202 17.8549 35.0398 17.8155 35.0587 17.7767C35.0756 17.7418 35.0919 17.7064 35.1104 17.6658C35.1309 17.6207 35.1512 17.5753 35.1714 17.5273C35.182 17.5023 35.1917 17.4767 35.2 17.4561C35.2501 17.3288 35.2963 17.1999 35.334 17.0788C35.337 17.0696 35.3403 17.0591 35.3423 17.0525C35.344 17.0464 35.3461 17.0404 35.3478 17.0345C35.3675 16.9663 35.3861 16.8968 35.4073 16.8113L35.4227 16.7467C35.4395 16.6728 35.4547 16.598 35.4666 16.528L35.4797 16.4479C35.6004 15.6792 35.5123 14.9304 35.2182 14.2231C34.2637 11.9274 32.6367 11.6622 31.0485 11.4437Z" fill="#E2E2E2"/>
<path d="M30.8888 11.2841C30.8622 11.279 30.8355 11.2744 30.8086 11.2704L25.5829 10.511L23.2452 5.77419C23.2003 5.68325 23.1567 5.59533 23.1147 5.51177C23.0756 5.4339 23.0375 5.35963 22.9995 5.28592C22.9968 5.2808 22.9872 5.26186 22.9845 5.25693C22.9443 5.17887 22.9036 5.10535 22.8682 5.03828C22.8646 5.03184 22.8541 5.01175 22.8505 5.0055C22.8079 4.92744 22.7651 4.85335 22.7291 4.79083C22.7249 4.78344 22.7143 4.76544 22.7101 4.75805C22.6658 4.68207 22.6205 4.61007 22.5766 4.54072C22.5699 4.53011 22.5614 4.51647 22.5559 4.50832C22.5112 4.43897 22.4655 4.37323 22.4132 4.29914C22.4047 4.28701 22.3937 4.27129 22.3863 4.26087C22.3297 4.1828 22.2717 4.10891 22.2133 4.03729C22.2071 4.02971 22.2006 4.02175 22.194 4.01379C22.1317 3.93857 22.0671 3.86771 22.0019 3.79931C21.992 3.78889 21.9801 3.77657 21.9716 3.76786C21.903 3.69794 21.8298 3.62973 21.7531 3.56228C21.7433 3.55356 21.7325 3.54409 21.7241 3.53708C21.6421 3.46754 21.5551 3.39971 21.4778 3.34495C21.471 3.34021 21.4558 3.32941 21.449 3.32468C21.3579 3.2612 21.2609 3.19981 21.1608 3.14316C21.1604 3.14297 21.1602 3.14278 21.1599 3.14259C21.1561 3.14051 21.1523 3.13843 21.1483 3.13615C21.049 3.0812 20.9441 3.02891 20.8364 2.98078C20.8326 2.97889 20.8287 2.97737 20.8247 2.97548C20.3665 2.77861 19.8519 2.65735 19.2473 2.61358C19.1454 2.60638 19.0452 2.60278 18.9464 2.60278C16.3006 2.60278 15.0272 5.0036 14.8875 5.28365L12.3073 10.5112L7.03536 11.2773C7.01566 11.2801 6.99614 11.2833 6.97662 11.2867C5.5622 11.5401 3.96418 11.83 3.03102 13.709C3.01208 13.7469 2.99351 13.785 2.9757 13.8227C2.95448 13.8681 2.93363 13.914 2.91791 13.9502C2.87888 14.0402 2.83947 14.1326 2.801 14.2334C2.75723 14.3477 2.7182 14.4682 2.68467 14.5902C2.6714 14.6378 2.65833 14.6851 2.64336 14.7479C2.62972 14.8055 2.61873 14.8625 2.60907 14.9123C2.585 15.0368 2.56662 15.1613 2.55393 15.2827C2.55317 15.2892 2.5526 15.2958 2.55203 15.3024C2.38283 17.0754 3.42418 18.4208 3.88005 18.9174C3.90241 18.9417 3.92553 18.9657 3.9494 18.9888L8.20479 23.1374L7.22199 28.8652C7.20987 28.937 7.20172 29.0094 7.19812 29.0821C7.13995 30.2805 7.06738 31.7721 8.453 33.04L8.4801 33.0645C8.53921 33.1179 8.60041 33.1711 8.6654 33.2238C8.68662 33.2411 8.70898 33.2589 8.73153 33.2763L9.83805 31.8566L8.74763 33.2886L8.76222 33.3002C8.80523 33.3339 8.84881 33.3674 8.89239 33.3995C8.97216 33.4582 9.05553 33.5167 9.14704 33.5774C9.24747 33.6439 9.35452 33.7077 9.46972 33.7701C9.50534 33.7894 9.54096 33.8064 9.57942 33.8254C9.64991 33.8601 9.7202 33.8947 9.78784 33.9239C9.83427 33.9438 9.88012 33.963 9.93639 33.983C9.93753 33.9832 9.95344 33.9897 9.95477 33.99C10.0067 34.0094 10.0582 34.0293 10.1115 34.0471C10.1689 34.0662 10.2251 34.0848 10.2827 34.099C10.2845 34.0994 10.3076 34.106 10.3095 34.1064C10.3508 34.1172 10.3915 34.1291 10.422 34.1367C10.495 34.1545 10.5675 34.1697 10.6454 34.1846C10.675 34.1903 10.7047 34.196 10.7333 34.2007C10.8133 34.214 10.8929 34.2242 10.9802 34.2339L11.0257 34.2384C11.1134 34.2468 11.2002 34.2519 11.2868 34.2551C11.2953 34.2553 11.3042 34.2557 11.3093 34.2559C12.2296 34.2923 13.0432 34.0058 13.5474 33.7754C13.5785 33.7614 13.609 33.7464 13.6391 33.7305L14.0124 33.5338C14.0224 33.5287 14.0322 33.5232 14.0421 33.5177C14.054 33.5118 14.066 33.5058 14.0777 33.4995L18.9455 30.9405L23.803 33.4942C23.8104 33.498 23.8176 33.5018 23.825 33.5054C23.8256 33.5056 23.826 33.5059 23.8265 33.5063L24.2917 33.7513C24.3277 33.7703 24.3644 33.7879 24.4018 33.8044C24.4535 33.8273 24.5082 33.8504 24.5537 33.869C24.5778 33.8788 24.6032 33.8887 24.6278 33.8982C24.6642 33.9124 24.7002 33.9264 24.7313 33.9379C24.7602 33.9487 24.7906 33.9578 24.8321 33.9738C24.8338 33.9743 24.8516 33.9806 24.8531 33.9811L24.9118 34.001C24.9545 34.0152 24.998 34.0289 25.0384 34.041L25.1081 34.0617C25.1572 34.0759 25.2072 34.0897 25.2654 34.1045L25.3084 34.1153C25.3669 34.1299 25.4259 34.1433 25.4891 34.1566C25.4979 34.1585 25.5041 34.1596 25.5128 34.1611C25.8291 34.2222 26.1447 34.2585 26.4528 34.2585C27.2837 34.2585 28.0514 34.0296 28.7354 33.5777C30.6855 32.2882 30.7713 30.8101 30.6807 29.0114C30.6771 28.9398 30.6692 28.8684 30.6572 28.7977L29.686 23.1376L34.0287 18.9047C34.0716 18.8628 34.1123 18.8189 34.1509 18.773C34.1809 18.7374 34.2138 18.6969 34.2481 18.6535L34.248 18.6533L34.268 18.6279C34.2951 18.5932 34.323 18.5567 34.3584 18.5093L34.3812 18.4782C34.4092 18.4398 34.438 18.399 34.4702 18.3526L34.4982 18.3119C34.5344 18.2586 34.5716 18.2033 34.6076 18.1444C34.6087 18.1425 34.6258 18.1148 34.6273 18.1127C34.6625 18.058 34.6955 18 34.7281 17.943C34.7427 17.9176 34.7569 17.8914 34.7711 17.8651L34.7832 17.8427C34.8027 17.8069 34.8219 17.7707 34.8412 17.7332C34.8611 17.6944 34.8804 17.6551 34.8994 17.6161C34.9162 17.5812 34.9325 17.546 34.9509 17.5055C34.9714 17.4602 34.9916 17.4149 35.0119 17.367C35.0225 17.3418 35.0324 17.3162 35.0403 17.2955C35.0904 17.168 35.1362 17.0392 35.1743 16.9183C35.1771 16.9092 35.1807 16.8986 35.1826 16.8919C35.1845 16.8859 35.1864 16.8798 35.1881 16.8739C35.2084 16.8059 35.2264 16.7364 35.2476 16.6507L35.263 16.5861C35.2798 16.5122 35.2946 16.4374 35.3069 16.3673L35.3198 16.2871C35.4407 15.5184 35.3526 14.7698 35.0585 14.0623C34.1041 11.7676 32.4769 11.5026 30.8888 11.2841Z" fill="#D4D4D4"/>
<path d="M30.7294 11.1248C30.7027 11.1197 30.6762 11.1151 30.6491 11.1113L25.4236 10.3519L23.0859 5.61507C23.0409 5.52393 22.9972 5.43621 22.9551 5.35246C22.9159 5.27458 22.8771 5.20107 22.8399 5.12661C22.8373 5.12149 22.8278 5.10254 22.8249 5.09762C22.7842 5.02012 22.745 4.94566 22.7086 4.87896C22.705 4.87233 22.6944 4.85244 22.6908 4.84599C22.6476 4.7685 22.6059 4.69385 22.5695 4.63151C22.5654 4.62412 22.5549 4.60612 22.5506 4.59873C22.5063 4.52256 22.4613 4.45037 22.4172 4.38141C22.4104 4.3708 22.4019 4.35734 22.3965 4.34882C22.3518 4.27966 22.3062 4.21372 22.2541 4.13964C22.2455 4.1277 22.2345 4.11197 22.227 4.10155C22.1703 4.0233 22.1125 3.94941 22.054 3.87797C22.0477 3.87058 22.0413 3.86244 22.0347 3.85448C21.9725 3.77888 21.9079 3.70821 21.8425 3.63999C21.8325 3.62957 21.8207 3.61707 21.8124 3.60854C21.744 3.53844 21.6707 3.47042 21.5939 3.40315C21.5841 3.39444 21.5733 3.38515 21.5649 3.37795C21.4833 3.30804 21.3956 3.24115 21.3184 3.18602C21.3116 3.18128 21.2965 3.17029 21.2898 3.16574C21.1987 3.10189 21.1015 3.04088 21.0015 2.98423C21.0011 2.98404 21.0009 2.98385 21.0005 2.98366C20.9965 2.98157 20.9927 2.97949 20.9889 2.97722C20.8902 2.92132 20.7849 2.86997 20.6773 2.82185C20.6733 2.82014 20.6693 2.81825 20.6653 2.81673C20.2062 2.62157 19.6926 2.49861 19.088 2.45484C18.986 2.44726 18.8856 2.44385 18.7871 2.44385C16.1415 2.44385 14.8678 4.84467 14.7284 5.12471L12.1481 10.3523L6.876 11.1185C6.85629 11.1214 6.83678 11.1246 6.81745 11.128C5.40303 11.3815 3.79989 11.6688 2.87166 13.55C2.85271 13.5879 2.83414 13.626 2.81633 13.6639C2.79511 13.7092 2.77427 13.755 2.75854 13.7914C2.71932 13.8814 2.6801 13.9739 2.64145 14.0747C2.59787 14.1891 2.55903 14.3096 2.5253 14.4317C2.51204 14.4792 2.49897 14.5266 2.484 14.5893C2.47036 14.6467 2.45918 14.7039 2.44951 14.7538C2.42526 14.8781 2.40707 15.0027 2.39457 15.1242C2.39381 15.1308 2.39324 15.1373 2.39267 15.1439C2.22347 16.9168 3.26482 18.2624 3.7205 18.7589C3.74305 18.7831 3.76617 18.807 3.78985 18.8301L8.04524 22.9786L7.06263 28.7064C7.05012 28.778 7.04236 28.8506 7.03876 28.9234C6.9804 30.1218 6.90802 31.6135 8.29345 32.8813L8.32055 32.9057C8.37966 32.959 8.44086 33.0124 8.50585 33.0651C8.52707 33.0825 8.54943 33.1003 8.57179 33.1176L9.6785 31.6978L8.58789 33.1301L8.60267 33.1416C8.64568 33.1753 8.68926 33.2089 8.73284 33.2409C8.81261 33.2996 8.89617 33.3582 8.98749 33.4188C9.08791 33.4853 9.19459 33.5494 9.31017 33.6115C9.34579 33.6308 9.38141 33.6479 9.42006 33.6668C9.49073 33.7013 9.56084 33.736 9.62867 33.7654C9.6749 33.7853 9.72095 33.8038 9.77703 33.8243C9.77817 33.8247 9.79408 33.8309 9.79541 33.8313C9.84732 33.8506 9.89905 33.8707 9.9521 33.8883C10.0095 33.9075 10.0658 33.9262 10.1234 33.9401C10.1251 33.9404 10.1484 33.9471 10.1501 33.9475C10.1914 33.9575 10.2321 33.9704 10.2627 33.9778C10.3356 33.9954 10.4082 34.0107 10.486 34.0257C10.5156 34.0314 10.5453 34.0371 10.574 34.0418C10.6539 34.0551 10.7335 34.0655 10.8208 34.075L10.8665 34.0797C10.954 34.0879 11.0408 34.0928 11.1274 34.0962C11.1357 34.0966 11.1448 34.0968 11.15 34.0969C12.0704 34.1254 12.8838 33.8468 13.3882 33.6164C13.4191 33.6022 13.4496 33.5874 13.4797 33.5715L13.853 33.3749C13.863 33.3696 13.8729 33.3641 13.8829 33.3588C13.8949 33.3527 13.9068 33.3468 13.9185 33.3406L18.7865 30.7815L23.644 33.3353C23.6514 33.3391 23.6583 33.3436 23.6658 33.3466C23.6664 33.3468 23.667 33.3472 23.6673 33.3474L24.1325 33.5922C24.1685 33.6113 24.2053 33.6289 24.2424 33.6454C24.2941 33.6684 24.3487 33.6915 24.3942 33.7098C24.4184 33.7197 24.4438 33.7296 24.4684 33.739C24.5048 33.7532 24.5408 33.7675 24.5721 33.7788C24.6011 33.7896 24.6312 33.7993 24.6727 33.8144C24.6746 33.815 24.6924 33.8213 24.6939 33.8218L24.7525 33.8417C24.7953 33.8559 24.8389 33.8694 24.8792 33.8817L24.9488 33.9025C24.9978 33.9168 25.0477 33.9302 25.106 33.9454L25.1488 33.9562C25.2076 33.9708 25.2665 33.9842 25.3298 33.9975C25.3385 33.9994 25.3448 34.0005 25.3535 34.0022C25.6693 34.0647 25.9854 34.0994 26.2935 34.0994C27.1241 34.0994 27.892 33.8705 28.576 33.4186C30.5261 32.1291 30.6119 30.6508 30.5214 28.8523C30.5178 28.7807 30.5098 28.7093 30.4977 28.6386L29.5263 22.9781L33.8688 18.7452C33.9116 18.7033 33.9524 18.6596 33.991 18.6135C34.0209 18.5779 34.0539 18.5374 34.0882 18.494L34.1081 18.4686C34.1352 18.4339 34.1629 18.3973 34.1983 18.35L34.221 18.3189C34.2491 18.2802 34.2779 18.2397 34.3099 18.1933L34.3379 18.1524C34.3741 18.0991 34.4099 18.0432 34.4471 17.985C34.4484 17.983 34.4656 17.9555 34.467 17.9534C34.5013 17.8981 34.5352 17.8407 34.5678 17.7836C34.5824 17.7582 34.5966 17.7323 34.6108 17.706L34.6229 17.6836C34.6426 17.6478 34.6616 17.6116 34.6809 17.5741C34.7008 17.5352 34.7203 17.4962 34.7392 17.4572C34.7561 17.4223 34.7724 17.3871 34.7908 17.3465C34.8112 17.3012 34.8315 17.256 34.8516 17.208C34.8622 17.1828 34.8723 17.1572 34.8802 17.1366C34.93 17.0091 34.9761 16.8802 35.0142 16.7593C35.017 16.7501 35.0204 16.7396 35.0223 16.733C35.0242 16.7269 35.0261 16.7211 35.0278 16.7148C35.0483 16.647 35.0661 16.5774 35.0873 16.4918L35.1027 16.4274C35.1197 16.3533 35.1345 16.2785 35.1466 16.2085L35.1597 16.1284C35.2804 15.3595 35.1921 14.6109 34.8982 13.9036C33.9446 11.6083 32.3176 11.3432 30.7294 11.1248Z" fill="#C5C5C5"/>
<path d="M30.5699 10.9652C30.5431 10.9601 30.5166 10.9557 30.4895 10.9517L25.264 10.1923L22.9263 5.45548C22.8814 5.36434 22.8376 5.27662 22.7956 5.19287C22.7565 5.11481 22.7183 5.04072 22.6804 4.96702C22.6779 4.9619 22.6682 4.94277 22.6654 4.93784C22.6248 4.86015 22.5854 4.78607 22.5492 4.71919C22.5456 4.71274 22.535 4.69266 22.5314 4.68641C22.4888 4.60834 22.4462 4.53445 22.41 4.47173C22.4058 4.46434 22.3954 4.44634 22.391 4.43914C22.3465 4.36317 22.3014 4.29117 22.2576 4.22182C22.2508 4.21121 22.2423 4.19775 22.237 4.18923C22.1923 4.12007 22.1466 4.05413 22.0943 3.98005C22.0858 3.96792 22.0748 3.95239 22.0674 3.94197C22.0106 3.8639 21.9528 3.78982 21.8942 3.71839C21.8882 3.71081 21.8815 3.70285 21.8749 3.69489C21.8124 3.61967 21.748 3.54881 21.6828 3.48041C21.6729 3.46999 21.661 3.45767 21.6527 3.44895C21.5843 3.37885 21.5109 3.31083 21.4342 3.24357C21.4243 3.23485 21.4135 3.22538 21.4052 3.21837C21.3234 3.14864 21.2358 3.08157 21.1587 3.02643C21.1519 3.0215 21.1367 3.0107 21.1299 3.00597C21.0388 2.9423 20.9418 2.8811 20.8415 2.82445C20.8411 2.82426 20.841 2.82407 20.8406 2.82388C20.8368 2.82161 20.833 2.81952 20.829 2.81744C20.7297 2.76249 20.6244 2.71114 20.5171 2.66207C20.5132 2.66037 20.5092 2.65847 20.5054 2.65677C20.0471 2.4599 19.5326 2.33864 18.928 2.29487C18.8267 2.2871 18.7262 2.28369 18.6277 2.28369C15.9819 2.28369 14.7084 4.68451 14.5688 4.96474L11.9886 10.1923L6.71626 10.9586C6.69674 10.9614 6.67703 10.9646 6.65771 10.968C5.24329 11.2214 3.64015 11.5086 2.71211 13.3901C2.69335 13.4278 2.67459 13.4661 2.65697 13.5039C2.63575 13.5492 2.61491 13.5951 2.59918 13.6313C2.55996 13.7213 2.52074 13.8139 2.48209 13.9145C2.43851 14.029 2.39986 14.1495 2.36594 14.2713C2.35268 14.3189 2.3396 14.3662 2.32482 14.4291C2.31118 14.4866 2.3 14.5436 2.29034 14.5936C2.26647 14.7179 2.2479 14.8426 2.23539 14.964C2.23463 14.9707 2.23407 14.9771 2.23331 14.9837C2.06411 16.7568 3.10546 18.1023 3.56114 18.5987C3.5835 18.6231 3.6068 18.6468 3.63049 18.6701L7.88588 22.8187L6.90308 28.5465C6.89076 28.6181 6.8828 28.6906 6.87939 28.7634C6.82085 29.9618 6.74847 31.4535 8.13409 32.7213L8.16118 32.7459C8.2203 32.7992 8.28169 32.8526 8.34649 32.9053C8.36771 32.9225 8.39007 32.9403 8.41242 32.9576L9.51914 31.5381L8.42853 32.9703L8.44331 32.9818C8.48651 33.0156 8.5299 33.0493 8.57348 33.0813C8.65324 33.14 8.7368 33.1986 8.82813 33.259C8.92855 33.3255 9.03541 33.3894 9.1508 33.4517C9.18642 33.4711 9.22204 33.4881 9.26051 33.5071C9.33118 33.5417 9.40148 33.5764 9.46912 33.6054C9.51554 33.6253 9.56177 33.6431 9.61767 33.6643C9.6188 33.6647 9.63472 33.671 9.63604 33.6713C9.68796 33.6907 9.73969 33.7107 9.79274 33.7284C9.85015 33.7473 9.90642 33.7666 9.96402 33.7803C9.96592 33.7807 9.98903 33.7873 9.99074 33.7877C10.0317 33.7989 10.0728 33.8104 10.1033 33.818C10.1762 33.8358 10.2486 33.851 10.3267 33.8659C10.3564 33.8716 10.386 33.8773 10.4146 33.882C10.4947 33.8953 10.5741 33.9059 10.6615 33.9152L10.707 33.9199C10.7947 33.9283 10.8815 33.9334 10.968 33.9364C10.9764 33.9366 10.9855 33.937 10.9906 33.9372C11.9111 33.9654 12.7243 33.6871 13.2287 33.4567C13.2595 33.4424 13.29 33.4277 13.3202 33.4118L13.6934 33.2151C13.7035 33.21 13.7135 33.2045 13.7234 33.199C13.7353 33.1929 13.7471 33.1868 13.759 33.1806L18.6269 30.6218L23.4845 33.1755C23.4919 33.1793 23.4991 33.1831 23.5065 33.1869C23.5068 33.187 23.5074 33.1872 23.508 33.1876L23.9731 33.4324C24.0091 33.4514 24.0459 33.4692 24.083 33.4857C24.1348 33.5086 24.1893 33.5317 24.2348 33.5503C24.2591 33.5601 24.2843 33.57 24.3091 33.5794C24.3455 33.5937 24.3815 33.6077 24.4125 33.6194C24.4415 33.6302 24.4716 33.6397 24.5133 33.655C24.515 33.6558 24.5328 33.6619 24.5345 33.6624L24.5931 33.6823C24.6357 33.6965 24.6795 33.71 24.7199 33.7223L24.7894 33.743C24.8385 33.7572 24.8883 33.7708 24.9467 33.786L24.9895 33.7968C25.048 33.8114 25.1071 33.8248 25.1704 33.8381C25.1791 33.84 25.1854 33.8411 25.1941 33.8428C25.5102 33.9055 25.826 33.9402 26.1341 33.9402H26.1343C26.9649 33.9402 27.7327 33.7113 28.4167 33.2592C30.3667 31.9699 30.4524 30.4916 30.362 28.6929C30.3584 28.6213 30.3504 28.5499 30.3383 28.4792L29.3671 22.819L33.7096 18.5862C33.7526 18.5443 33.7934 18.5004 33.8318 18.4545C33.8618 18.4189 33.8946 18.3782 33.929 18.335L33.9489 18.3094C33.976 18.2747 34.0039 18.2383 34.0393 18.1908L34.062 18.1597C34.0903 18.121 34.1189 18.0805 34.1509 18.0341L34.179 17.9931C34.2151 17.9399 34.2519 17.8846 34.2883 17.8257C34.2894 17.8238 34.3067 17.7961 34.308 17.794C34.3423 17.7389 34.3762 17.6813 34.4086 17.6242C34.4232 17.5988 34.4374 17.5727 34.4518 17.5464L34.4639 17.5242C34.4832 17.4884 34.5026 17.4522 34.5219 17.4147C34.542 17.3758 34.5613 17.3366 34.5801 17.2978C34.5969 17.2629 34.6132 17.2277 34.6318 17.1871C34.6523 17.1416 34.6727 17.0964 34.6928 17.0486C34.7034 17.0234 34.7133 16.9978 34.7214 16.9772C34.7714 16.8499 34.8177 16.7208 34.8554 16.5999C34.8584 16.5908 34.8616 16.5802 34.8635 16.5738C34.8654 16.5677 34.8673 16.5617 34.869 16.5556C34.8893 16.4876 34.9073 16.418 34.9285 16.3326L34.9439 16.268C34.9609 16.1939 34.9757 16.1191 34.9878 16.0491L35.0009 15.9692C35.1216 15.2003 35.0335 14.4517 34.7394 13.7442C33.785 11.4487 32.158 11.1837 30.5699 10.9652Z" fill="#B7B7B7"/>
<path d="M30.4103 10.8056C30.3838 10.8005 30.3569 10.796 30.33 10.7922L25.1047 10.0326L22.767 5.29573C22.7221 5.20479 22.6785 5.11687 22.6362 5.03331C22.5972 4.95525 22.5582 4.88173 22.521 4.80746C22.5186 4.80234 22.5087 4.7834 22.5061 4.77828C22.4655 4.7006 22.4257 4.62651 22.3899 4.55982C22.3863 4.55319 22.3757 4.53329 22.3721 4.52704C22.3291 4.44898 22.2868 4.37489 22.2508 4.31236C22.2467 4.30498 22.2361 4.28698 22.2319 4.27978C22.1868 4.20436 22.1423 4.13161 22.0985 4.06226C22.0917 4.05146 22.0832 4.03801 22.0779 4.02986C22.0331 3.96051 21.9875 3.89495 21.9354 3.82068C21.9268 3.80874 21.9159 3.79302 21.9083 3.7826C21.8516 3.70434 21.7933 3.63083 21.7351 3.55902C21.729 3.55144 21.7224 3.54348 21.7158 3.53533C21.6536 3.45992 21.5892 3.38887 21.5236 3.32085C21.5136 3.31043 21.5019 3.29811 21.4935 3.28959C21.4249 3.21967 21.3518 3.15146 21.2751 3.08401C21.2652 3.07529 21.2546 3.06601 21.2461 3.05881C21.1644 2.98908 21.0765 2.9222 20.9997 2.86687C20.9929 2.86213 20.9778 2.85133 20.9711 2.8466C20.8802 2.78255 20.7828 2.72173 20.6828 2.66508C20.6824 2.66489 20.6824 2.6647 20.682 2.6647C20.678 2.66262 20.6742 2.66034 20.6703 2.65807C20.571 2.60312 20.466 2.55083 20.3584 2.5027C20.3544 2.501 20.3506 2.4991 20.3464 2.4974C19.8894 2.29769 19.3737 2.17927 18.7691 2.1355C18.6671 2.12811 18.5669 2.12451 18.4682 2.12451C15.8226 2.12451 14.5489 4.52533 14.4095 4.80556L11.829 10.0326L6.55673 10.7988C6.53703 10.8016 6.51751 10.8047 6.498 10.8083C5.08377 11.0616 3.48063 11.349 2.5524 13.2305C2.53364 13.2682 2.51488 13.3063 2.49726 13.3444C2.47623 13.3897 2.4552 13.4355 2.43947 13.4719C2.40063 13.5619 2.36103 13.6544 2.32238 13.7552C2.2788 13.8696 2.24015 13.9901 2.20623 14.1119C2.19297 14.1595 2.18008 14.2069 2.16492 14.2696C2.15109 14.3272 2.1401 14.3842 2.13063 14.434C2.10676 14.5583 2.08838 14.683 2.07568 14.8047C2.07511 14.8111 2.07436 14.8177 2.07379 14.8244C1.90478 16.5973 2.94593 17.9429 3.40162 18.4391C3.42398 18.4636 3.44728 18.4875 3.47097 18.5108L7.72654 22.6593L6.74374 28.3869C6.73143 28.4587 6.72347 28.5311 6.72006 28.604C6.6617 29.8025 6.58913 31.294 7.97476 32.5619L8.00185 32.5864C8.06097 32.6398 8.12236 32.6931 8.18735 32.7459C8.20857 32.7634 8.23092 32.781 8.25328 32.7982L9.36 31.3787L8.26939 32.8109L8.28417 32.8223C8.32737 32.856 8.37057 32.8899 8.41433 32.9218C8.4941 32.9803 8.57766 33.039 8.66918 33.0995C8.76941 33.166 8.87646 33.2298 8.99166 33.2924C9.02728 33.3115 9.0629 33.3287 9.10137 33.3473C9.17204 33.382 9.24234 33.4167 9.30998 33.4458C9.35621 33.4657 9.40301 33.4826 9.45833 33.5048C9.45947 33.5053 9.47539 33.5114 9.47652 33.5118C9.52901 33.5294 9.58017 33.5512 9.63341 33.5688C9.69063 33.5878 9.74709 33.6069 9.80488 33.6207C9.80659 33.6211 9.82989 33.6277 9.8316 33.6281C9.87271 33.6395 9.91364 33.6509 9.94415 33.6582C10.0173 33.6761 10.0897 33.6912 10.1675 33.7062C10.1973 33.7119 10.2268 33.7175 10.2555 33.7223C10.3356 33.7355 10.415 33.7462 10.5025 33.7554L10.5478 33.7602C10.6355 33.7685 10.7223 33.7736 10.8089 33.7767C10.8172 33.7769 10.8263 33.7774 10.8315 33.7774C11.7521 33.7977 12.5651 33.5273 13.0693 33.2969C13.1004 33.2827 13.1309 33.2677 13.1608 33.252L13.5341 33.0551C13.5441 33.05 13.554 33.0445 13.564 33.039C13.576 33.0332 13.5879 33.0271 13.5997 33.0209L18.4674 30.462L23.3252 33.0157C23.3324 33.0195 23.3396 33.0239 23.3469 33.0271C23.3473 33.0271 23.3479 33.0275 23.3485 33.0277L23.8136 33.2725C23.8496 33.2914 23.8862 33.3092 23.9235 33.3255C23.9752 33.3484 24.0298 33.3718 24.0753 33.3901C24.0995 33.4 24.1247 33.4098 24.1496 33.4193C24.1859 33.4333 24.2219 33.4475 24.253 33.4591C24.282 33.4699 24.3121 33.4794 24.3538 33.4949C24.3555 33.4957 24.3733 33.5017 24.375 33.5023L24.4336 33.5222C24.4762 33.5364 24.52 33.5499 24.5601 33.5622L24.6299 33.5828C24.6789 33.5972 24.7288 33.6107 24.7871 33.6258L24.8301 33.6364C24.8887 33.6509 24.9476 33.6647 25.0111 33.6778C25.0198 33.6795 25.0261 33.6808 25.0348 33.6825C25.3503 33.7463 25.6665 33.7797 25.9748 33.7797C26.8054 33.7797 27.5732 33.5508 28.2572 33.0989C30.2072 31.8094 30.2931 30.3311 30.2027 28.5326C30.1989 28.461 30.1911 28.3895 30.179 28.3187L29.2077 22.6585L33.5503 18.4257C33.5931 18.3838 33.6339 18.3399 33.6725 18.294C33.7022 18.2584 33.7352 18.2176 33.7695 18.1744L33.7894 18.1489C33.8165 18.1142 33.8444 18.0778 33.8798 18.0303L33.9025 17.999C33.9306 17.9605 33.9594 17.92 33.9916 17.8736L34.0196 17.8326C34.0558 17.7794 34.0924 17.7241 34.1289 17.6651C34.1301 17.6631 34.1473 17.6356 34.1487 17.6333C34.1829 17.5782 34.2169 17.5206 34.2495 17.4637C34.264 17.4382 34.2783 17.4122 34.2925 17.3859L34.3046 17.3637C34.3239 17.3277 34.3432 17.2917 34.3624 17.254C34.3825 17.2151 34.4018 17.1759 34.4205 17.1371C34.4374 17.102 34.4537 17.067 34.4721 17.0264C34.4927 16.981 34.513 16.9357 34.5331 16.8879C34.5437 16.8629 34.5536 16.837 34.5617 16.8163C34.6115 16.689 34.6572 16.5599 34.6957 16.4391C34.6985 16.43 34.7019 16.4194 34.7038 16.4127C34.7057 16.4068 34.7074 16.4006 34.7093 16.3947C34.7294 16.3267 34.7476 16.2572 34.7688 16.1717L34.7841 16.1071C34.8012 16.033 34.816 15.9582 34.8283 15.8883L34.8412 15.8081C34.9619 15.0392 34.8738 14.2906 34.5797 13.5833C33.6253 11.2894 31.9983 11.0241 30.4103 10.8056Z" fill="#A8A8A8"/>
<path d="M30.2508 10.6461C30.2242 10.641 30.1975 10.6365 30.1704 10.6325L24.9449 9.8731L22.6072 5.13625C22.5625 5.04531 22.5185 4.95739 22.4767 4.87364C22.4376 4.79577 22.3992 4.72188 22.3615 4.64779C22.359 4.64268 22.3491 4.62373 22.3465 4.61861C22.3067 4.54055 22.266 4.46703 22.2302 4.40015C22.2266 4.39371 22.2159 4.37362 22.2125 4.36737C22.1703 4.28912 22.1271 4.21522 22.0911 4.1527C22.0869 4.14531 22.0765 4.12731 22.0721 4.11992C22.0276 4.04413 21.9829 3.97175 21.9386 3.9024C21.9319 3.89179 21.9234 3.87834 21.9179 3.87C21.8732 3.80065 21.8275 3.73491 21.7754 3.66082C21.7669 3.64889 21.7559 3.63297 21.7485 3.62255C21.6919 3.54449 21.6341 3.4704 21.5753 3.39916C21.5691 3.39158 21.5626 3.38362 21.556 3.37566C21.4935 3.30044 21.4291 3.22939 21.3639 3.16118C21.354 3.15076 21.3423 3.13844 21.3338 3.12992C21.2652 3.06 21.192 2.99198 21.1153 2.92434C21.1054 2.91581 21.0946 2.90615 21.0863 2.89895C21.0048 2.82903 20.9167 2.76253 20.8398 2.70701C20.833 2.70228 20.8178 2.69129 20.8112 2.68674C20.7202 2.6227 20.623 2.56188 20.5228 2.50522C20.5224 2.50503 20.5222 2.50484 20.5219 2.50465C20.5181 2.50257 20.5143 2.50049 20.5103 2.49821C20.4116 2.44232 20.3062 2.39097 20.1984 2.34284C20.1946 2.34095 20.1907 2.33924 20.1867 2.33773C19.7285 2.14086 19.2139 2.0196 18.6093 1.97564C18.5076 1.96844 18.4071 1.96484 18.3084 1.96484C15.6628 1.96484 14.3892 4.36548 14.2495 4.64571L11.6693 9.87329L6.39716 10.6395C6.37746 10.6422 6.35813 10.6454 6.33843 10.6488C4.92344 10.8993 3.32087 11.1896 2.39282 13.071C2.37388 13.1089 2.35531 13.147 2.3375 13.1849C2.31628 13.2302 2.29544 13.276 2.27971 13.3122C2.24049 13.4022 2.20127 13.4949 2.1628 13.5955C2.11922 13.7099 2.08 13.8303 2.04647 13.9525C2.0332 14 2.02032 14.0474 2.00535 14.1101C1.99171 14.1677 1.98072 14.2247 1.97106 14.2748C1.94718 14.3989 1.9288 14.5235 1.91611 14.6452C1.91554 14.6516 1.91478 14.6583 1.91421 14.6649C1.75752 16.4389 2.78636 17.7834 3.24205 18.2797C3.2644 18.3041 3.28771 18.328 3.31139 18.3511L7.56659 22.4996L6.58379 28.2274C6.57167 28.2992 6.56352 28.3716 6.56011 28.4444C6.50175 29.6428 6.42918 31.1345 7.8148 32.4023L7.8419 32.4269C7.90101 32.4802 7.96221 32.5334 8.0272 32.5863C8.04843 32.6035 8.07078 32.6211 8.09333 32.6386L9.19986 31.219L8.10944 32.6512L8.12402 32.6628C8.16704 32.6965 8.21042 32.7301 8.25419 32.7621C8.33396 32.8206 8.41752 32.8794 8.50885 32.9398C8.60927 33.0063 8.71632 33.0702 8.83152 33.1327C8.86714 33.1518 8.90276 33.1691 8.94122 33.1878C9.01171 33.2225 9.082 33.2572 9.14984 33.2864C9.19626 33.3063 9.24173 33.3262 9.29819 33.3453C9.29933 33.3457 9.31544 33.3519 9.31657 33.3523C9.36792 33.3733 9.42002 33.3917 9.47327 33.4093C9.53068 33.4285 9.58695 33.4474 9.64455 33.4612C9.64645 33.4616 9.66956 33.4683 9.67127 33.4686C9.71238 33.4796 9.75331 33.4916 9.784 33.499C9.85695 33.5168 9.92933 33.5321 10.0072 33.5471C10.037 33.5528 10.0665 33.5584 10.0953 33.5632C10.1753 33.5764 10.2547 33.5869 10.3422 33.5963L10.3877 33.6009C10.4752 33.6092 10.5622 33.6138 10.6488 33.6176C10.6569 33.6179 10.6662 33.6181 10.6713 33.6183C11.592 33.6467 12.405 33.3682 12.9096 33.138C12.9404 33.1238 12.971 33.109 13.0011 33.0929L13.3743 32.8962C13.3844 32.8909 13.3942 32.8854 13.4043 32.8801C13.4162 32.8743 13.428 32.8682 13.4399 32.8619L18.3079 30.3029L23.1654 32.8566C23.1726 32.8602 23.1796 32.865 23.1872 32.8678C23.1878 32.868 23.1881 32.8684 23.1887 32.8686L23.6539 33.1134C23.6899 33.1323 23.7266 33.1499 23.7638 33.1664C23.8157 33.1894 23.8702 33.2125 23.9157 33.231C23.9398 33.2409 23.9654 33.2507 23.99 33.2602C24.0264 33.2744 24.0622 33.2886 24.0934 33.3C24.1224 33.3108 24.1526 33.3203 24.194 33.3356C24.1959 33.3364 24.2136 33.3424 24.2153 33.343L24.2738 33.3629C24.3164 33.3771 24.3602 33.3906 24.4006 33.4029L24.4701 33.4235C24.5192 33.4378 24.5692 33.4514 24.6274 33.4666L24.6704 33.4772C24.7289 33.4918 24.7879 33.5052 24.8513 33.5185C24.8599 33.5204 24.8663 33.5215 24.8748 33.5232C25.1909 33.5861 25.5067 33.6204 25.815 33.6204C26.6456 33.6204 27.4134 33.3915 28.0974 32.9396C30.0476 31.6501 30.1333 30.172 30.0427 28.3733C30.0391 28.3017 30.0312 28.2303 30.019 28.1596L29.048 22.4994L33.3905 18.2666C33.4335 18.2247 33.4741 18.1806 33.5127 18.1349C33.5427 18.0993 33.5756 18.0587 33.6098 18.0153L33.6298 17.99C33.6569 17.9553 33.6848 17.9187 33.72 17.8713L33.743 17.8403C33.771 17.8018 33.7998 17.7611 33.8318 17.7147L33.8599 17.6739C33.8959 17.6205 33.9322 17.5648 33.9692 17.5064C33.9703 17.5045 33.9876 17.4769 33.9889 17.4748C34.0228 17.4195 34.0571 17.3619 34.0897 17.305C34.1041 17.2796 34.1183 17.2535 34.1329 17.2273L34.1448 17.205C34.1642 17.1692 34.1835 17.133 34.2028 17.0955C34.2227 17.0566 34.2422 17.0172 34.261 16.9785C34.2778 16.9437 34.2943 16.9084 34.3127 16.8679C34.3332 16.8228 34.3534 16.7771 34.3737 16.7294C34.3843 16.7042 34.3942 16.6784 34.4021 16.658C34.4523 16.5304 34.498 16.4016 34.5361 16.2807C34.5391 16.2716 34.5423 16.261 34.5444 16.2544C34.5463 16.2485 34.5482 16.2424 34.5499 16.2364C34.5704 16.1684 34.588 16.0988 34.6092 16.0132L34.6248 15.9488C34.6416 15.8747 34.6566 15.8 34.6687 15.7299L34.6816 15.6498C34.8023 14.8811 34.7142 14.1325 34.4203 13.425C33.4659 11.1297 31.8389 10.8644 30.2508 10.6461Z" fill="#9A9A9A"/>
<path d="M30.0913 10.4866C30.0646 10.4813 30.0378 10.4769 30.0107 10.4729L24.7854 9.71351L22.4477 4.97667C22.4028 4.88553 22.359 4.7978 22.317 4.71406C22.2781 4.63618 22.2395 4.56248 22.202 4.4882C22.1993 4.48309 22.1896 4.46395 22.187 4.45902C22.1461 4.38153 22.1063 4.30745 22.0707 4.24056C22.0671 4.23393 22.0566 4.21403 22.053 4.20778C22.0104 4.12953 21.9672 4.05582 21.9314 3.99311C21.9274 3.98591 21.917 3.96772 21.9126 3.96033C21.8679 3.88435 21.823 3.81235 21.7792 3.743C21.7724 3.7322 21.7641 3.71875 21.7586 3.71022C21.7143 3.64088 21.668 3.57532 21.6159 3.50105C21.6076 3.48911 21.5966 3.47338 21.589 3.46296C21.5324 3.38471 21.4744 3.311 21.4158 3.23938C21.4096 3.2318 21.4031 3.22385 21.3965 3.21589C21.3338 3.14086 21.2692 3.0698 21.2044 3.0014C21.1945 2.99098 21.1828 2.97848 21.1743 2.97014C21.1057 2.90022 21.0329 2.83163 20.9558 2.76456C20.9458 2.75585 20.9351 2.74656 20.9268 2.73936C20.845 2.66945 20.757 2.60275 20.6803 2.54723C20.6735 2.54231 20.6583 2.5317 20.6517 2.52677C20.5609 2.46254 20.4635 2.4021 20.3633 2.34526C20.3631 2.34507 20.3627 2.34488 20.3624 2.34469C20.3586 2.34241 20.3548 2.34033 20.3508 2.33825C20.2513 2.2833 20.1466 2.231 20.0389 2.18269C20.035 2.18098 20.031 2.17909 20.0272 2.17757C19.5698 1.97881 19.0544 1.85945 18.4496 1.81568C18.3479 1.80829 18.2475 1.80469 18.1489 1.80469C15.5031 1.80469 14.2297 4.20551 14.09 4.48574L11.5096 9.71332L6.23767 10.4797C6.21796 10.4826 6.19845 10.4858 6.17893 10.4892C4.76451 10.7425 3.16137 11.03 2.23333 12.9113C2.21438 12.9491 2.19581 12.9872 2.178 13.0251C2.15678 13.0704 2.13594 13.1163 2.12003 13.1526C2.0808 13.2425 2.04177 13.3351 2.00312 13.4359C1.95954 13.5504 1.9207 13.6707 1.88697 13.7927C1.87371 13.8402 1.86064 13.8878 1.84567 13.9503C1.83203 14.0077 1.82085 14.065 1.81118 14.1148C1.78731 14.2393 1.76874 14.3636 1.75624 14.4854C1.75548 14.4918 1.75491 14.4985 1.75434 14.5051C1.59878 16.2792 2.62649 17.6237 3.08217 18.1201C3.10472 18.1445 3.12784 18.1684 3.15152 18.1915L7.40691 22.3398L6.42411 28.0678C6.41179 28.1394 6.40384 28.212 6.40043 28.2846C6.34207 29.4832 6.2695 30.9747 7.65512 32.2425L7.68222 32.2671C7.74133 32.3204 7.80272 32.3736 7.86752 32.4265C7.88874 32.4437 7.91091 32.4615 7.93365 32.4788L9.04017 31.0592L7.94956 32.4915L7.96434 32.503C8.00735 32.5368 8.05074 32.5703 8.09451 32.6023C8.17409 32.661 8.25784 32.7196 8.34916 32.78C8.44958 32.8465 8.55645 32.9106 8.67184 32.9727C8.70746 32.9919 8.74308 33.0091 8.78154 33.0281C8.85222 33.0627 8.92251 33.0974 8.99015 33.1266C9.03638 33.1465 9.0828 33.1643 9.13851 33.1855C9.13965 33.1859 9.15556 33.1921 9.1567 33.1925C9.20843 33.2126 9.26034 33.2319 9.31358 33.2497C9.37099 33.2687 9.42784 33.2854 9.48487 33.3015C9.48676 33.3018 9.50988 33.3085 9.51158 33.309C9.5527 33.3202 9.59363 33.3318 9.62432 33.3394C9.69727 33.3572 9.76965 33.3723 9.84771 33.3873C9.87727 33.393 9.90701 33.3985 9.93563 33.4032C10.0156 33.4165 10.0952 33.4271 10.1825 33.4364L10.228 33.4409C10.3157 33.4493 10.4025 33.4544 10.4891 33.4576C10.4974 33.458 10.5065 33.4582 10.5116 33.4583C11.4323 33.4788 12.2455 33.2082 12.7497 32.978C12.7806 32.964 12.8111 32.949 12.8412 32.9331L13.2145 32.7365C13.2245 32.7311 13.2344 32.7258 13.2444 32.7203C13.2563 32.7145 13.2681 32.7082 13.28 32.702L18.148 30.1431L23.0055 32.6969C23.0127 32.7006 23.0201 32.7044 23.0275 32.7082C23.0281 32.7086 23.0284 32.7086 23.029 32.709L23.4942 32.9538C23.5302 32.9727 23.5669 32.9905 23.6043 33.007C23.656 33.0299 23.7107 33.0529 23.756 33.0714C23.7803 33.0815 23.8057 33.0912 23.8303 33.1008C23.8667 33.1148 23.9027 33.129 23.9339 33.1406C23.9629 33.1514 23.9927 33.1618 24.0346 33.1764C24.0363 33.177 24.0541 33.1832 24.0558 33.1836L24.1145 33.2037C24.157 33.2179 24.2009 33.2314 24.2413 33.2437L24.3108 33.2645C24.3599 33.2787 24.4099 33.2924 24.4681 33.3073L24.5109 33.3181C24.5694 33.3327 24.6286 33.3462 24.6918 33.3594C24.7006 33.3613 24.7068 33.3625 24.7155 33.3642C25.0316 33.4267 25.3472 33.4614 25.6555 33.4614H25.6557C26.4863 33.4614 27.2543 33.2323 27.9381 32.7806C29.8882 31.491 29.9738 30.0128 29.8832 28.2143C29.8796 28.1425 29.8719 28.0712 29.8595 28.0004L28.8885 22.3402L33.231 18.1074C33.2739 18.0655 33.3146 18.0215 33.3532 17.9757C33.383 17.9401 33.4162 17.8995 33.4504 17.8559L33.4703 17.8306C33.4974 17.7959 33.5253 17.7591 33.5605 17.7118L33.5833 17.6807C33.6113 17.6422 33.6401 17.6015 33.6721 17.5551L33.7002 17.5141C33.7364 17.4609 33.7731 17.4054 33.8095 17.3468C33.8106 17.3447 33.8279 17.3173 33.8292 17.3152C33.8635 17.2599 33.8974 17.2023 33.93 17.1454C33.9446 17.12 33.9588 17.0939 33.973 17.0677L33.9851 17.0454C34.0045 17.0096 34.0238 16.9734 34.0431 16.9359C34.063 16.8972 34.0825 16.8578 34.1015 16.819C34.1182 16.7841 34.1346 16.7489 34.153 16.7081C34.1737 16.6628 34.1939 16.6175 34.2142 16.5696C34.2246 16.5444 34.2347 16.5188 34.2426 16.498C34.2927 16.3707 34.3387 16.2416 34.3766 16.1207C34.3794 16.1115 34.3827 16.101 34.3847 16.0946C34.3866 16.0885 34.3885 16.0825 34.3904 16.0764C34.4107 16.0084 34.4287 15.9389 34.4497 15.8532L34.4653 15.7888C34.4823 15.7147 34.4971 15.6401 34.5092 15.57L34.5223 15.4898C34.643 14.7209 34.5549 13.9723 34.2608 13.265C33.3064 10.9701 31.6794 10.705 30.0913 10.4866Z" fill="#8B8B8B"/>
<path d="M29.9317 10.3271C29.9052 10.3221 29.8784 10.3176 29.8513 10.3136L24.626 9.55419L22.2883 4.81754C22.2432 4.7264 22.1996 4.63868 22.1576 4.55493C22.1185 4.47706 22.0801 4.40316 22.0426 4.32908C22.0401 4.32396 22.0303 4.30502 22.0276 4.2999C21.9874 4.22222 21.9476 4.14813 21.9114 4.08144C21.908 4.07499 21.8972 4.05491 21.8938 4.04847C21.8516 3.9704 21.8088 3.89632 21.7724 3.83379C21.7682 3.82659 21.7578 3.8084 21.7534 3.8012C21.7085 3.72541 21.6636 3.65323 21.62 3.58388C21.6132 3.57308 21.6047 3.55963 21.5994 3.5511C21.5549 3.48175 21.5088 3.41619 21.4569 3.34192C21.4484 3.32979 21.4374 3.31426 21.4298 3.30384C21.3726 3.22596 21.3152 3.15188 21.2568 3.08026C21.2508 3.07268 21.2441 3.06472 21.2375 3.05676C21.1748 2.98192 21.1107 2.91068 21.0456 2.84228C21.0355 2.83167 21.0238 2.81954 21.0152 2.81083C20.9466 2.74091 20.8737 2.67289 20.7968 2.60544C20.7869 2.59672 20.7763 2.58725 20.7678 2.58024C20.6857 2.5107 20.5982 2.44363 20.5215 2.38811C20.5146 2.38318 20.4995 2.37238 20.4927 2.36765C20.4017 2.30398 20.3045 2.24278 20.2045 2.18632C20.2041 2.18594 20.2039 2.18594 20.2035 2.18575C20.1997 2.18348 20.1958 2.18139 20.192 2.17912C20.0931 2.12323 19.9872 2.07283 19.8801 2.02375C19.8761 2.02205 19.8723 2.02015 19.8682 2.01864C19.4093 1.82348 18.8954 1.70051 18.2908 1.65655C18.1889 1.64916 18.0886 1.64575 17.9901 1.64575C15.3443 1.64575 14.0708 4.04638 13.9312 4.3268L11.3504 9.554L6.07808 10.3202C6.05838 10.3231 6.03905 10.3263 6.01953 10.3299C4.60587 10.5876 3.00198 10.8705 2.07375 12.7519C2.05499 12.7896 2.03623 12.8279 2.01842 12.8658C1.9972 12.9109 1.97636 12.9568 1.96063 12.9931C1.92141 13.083 1.88219 13.1756 1.84353 13.2764C1.79996 13.3908 1.7613 13.5114 1.72739 13.6334C1.71431 13.6809 1.70124 13.7283 1.68627 13.7912C1.67244 13.8486 1.66145 13.9056 1.65179 13.9555C1.62791 14.0798 1.60934 14.2044 1.59665 14.3261C1.59608 14.3327 1.59532 14.3392 1.59476 14.3458C1.42556 16.1187 2.46709 17.4643 2.92259 17.9608C2.94513 17.9852 2.96825 18.0089 2.99193 18.0322L7.24732 22.1807L6.26452 27.9085C6.25221 27.9801 6.24425 28.0525 6.24065 28.1255C6.18248 29.3239 6.10972 30.8156 7.49534 32.0834L7.52244 32.1078C7.58155 32.1612 7.64294 32.2145 7.70793 32.2674C7.72916 32.2846 7.75151 32.3022 7.77387 32.3196L8.8804 30.9001L7.78979 32.3323L7.80457 32.3439C7.84758 32.3778 7.89097 32.4114 7.93473 32.4434C8.0145 32.5021 8.09787 32.5605 8.18939 32.6211C8.28981 32.6876 8.39667 32.7515 8.51206 32.8138C8.54768 32.8329 8.5833 32.8502 8.62177 32.8691C8.69225 32.9038 8.76254 32.9385 8.83019 32.9675C8.87661 32.9874 8.92341 33.0042 8.97873 33.0264C8.97987 33.027 8.99579 33.033 8.99692 33.0336C9.04884 33.0529 9.10057 33.0732 9.15381 33.0906C9.21103 33.1098 9.26787 33.1272 9.32509 33.1423C9.3268 33.1429 9.3501 33.1494 9.35181 33.1497C9.3933 33.16 9.43385 33.1727 9.46436 33.18C9.5373 33.1979 9.60987 33.2128 9.68775 33.228C9.71749 33.2337 9.74705 33.2394 9.77566 33.2441C9.85581 33.2574 9.9352 33.268 10.0225 33.2772L10.068 33.282C10.1557 33.2903 10.2425 33.2952 10.3291 33.2985C10.3373 33.2988 10.3465 33.2992 10.3517 33.2992C11.2717 33.3356 12.0853 33.0489 12.5897 32.8187C12.6206 32.8045 12.6513 32.7897 12.6814 32.7738L13.0545 32.5771C13.0645 32.5718 13.0744 32.5665 13.0844 32.561C13.0964 32.555 13.1081 32.5491 13.1201 32.5428L17.988 29.9838L22.8456 32.5377C22.8529 32.5415 22.8607 32.5446 22.8675 32.5489C22.8679 32.5493 22.8685 32.5493 22.8689 32.5497L23.334 32.7945C23.3702 32.8136 23.4068 32.8312 23.4441 32.8477C23.4958 32.8706 23.5504 32.8938 23.5959 32.9121C23.6201 32.922 23.6453 32.9318 23.67 32.9413C23.7065 32.9553 23.7423 32.9697 23.7734 32.9813C23.8024 32.9921 23.8321 33.0031 23.8742 33.0171C23.8759 33.0177 23.8937 33.0239 23.8954 33.0245L23.954 33.0444C23.9966 33.0588 24.0402 33.0722 24.0807 33.0846L24.1503 33.1052C24.1993 33.1194 24.2492 33.1331 24.3073 33.1482L24.3504 33.159C24.4089 33.1736 24.468 33.1865 24.5311 33.2001C24.5398 33.202 24.5461 33.2034 24.5548 33.2051C24.8705 33.2695 25.1865 33.3021 25.4948 33.3021C26.3254 33.3021 27.0934 33.0734 27.7772 32.6215C29.7274 31.3317 29.8131 29.8536 29.7227 28.0552C29.7189 27.9834 29.7111 27.9121 29.699 27.8412L28.7278 22.1811L33.0703 17.9484C33.1133 17.9066 33.1541 17.8626 33.1927 17.8168C33.2226 17.7811 33.2556 17.7404 33.2899 17.6972L33.3098 17.6716C33.3369 17.6371 33.3648 17.6006 33.4002 17.5532L33.4229 17.5221C33.451 17.4837 33.4796 17.4429 33.5118 17.3965L33.5398 17.3556C33.576 17.3025 33.6137 17.2476 33.6492 17.1883C33.6503 17.1864 33.6675 17.1585 33.6689 17.1566C33.7032 17.1015 33.7371 17.0439 33.7695 16.9869C33.7839 16.9615 33.7983 16.9355 33.8125 16.909L33.8246 16.8868C33.8439 16.851 33.8634 16.8148 33.8826 16.7773C33.9025 16.7385 33.9218 16.6992 33.9408 16.6604C33.9576 16.6255 33.9741 16.5903 33.9925 16.5498C34.0131 16.5045 34.0334 16.459 34.0535 16.4112C34.0641 16.386 34.074 16.3605 34.0821 16.3396C34.1323 16.2125 34.178 16.0833 34.2161 15.9626C34.2189 15.9533 34.2223 15.9429 34.2244 15.9364C34.2263 15.9302 34.2282 15.9243 34.2299 15.9182C34.2498 15.8502 34.2682 15.7807 34.2894 15.6952L34.3047 15.6306C34.3216 15.5565 34.3368 15.4817 34.3487 15.4118L34.3618 15.3316C34.4823 14.5627 34.3942 13.8141 34.1003 13.1066C33.1467 10.8106 31.5198 10.5455 29.9317 10.3271Z" fill="#7D7D7D"/>
<path d="M29.772 10.1673C29.7454 10.1624 29.7187 10.1577 29.6916 10.1539L24.4661 9.39447L22.1284 4.65744C22.0837 4.56649 22.0399 4.47858 21.9979 4.39483C21.9588 4.31696 21.92 4.24306 21.8827 4.16898C21.88 4.16386 21.8703 4.14491 21.8679 4.13999C21.8279 4.06192 21.7872 3.98822 21.7515 3.92133C21.7481 3.91489 21.7375 3.89481 21.7339 3.88856C21.6907 3.81087 21.6487 3.73641 21.6125 3.67388C21.6083 3.66649 21.5979 3.64849 21.5935 3.64129C21.5486 3.5655 21.5041 3.49312 21.4601 3.42378C21.4533 3.41317 21.445 3.39971 21.4395 3.39119C21.3948 3.32184 21.3491 3.25628 21.297 3.1822C21.2885 3.17007 21.2775 3.15435 21.2699 3.14392C21.2132 3.06586 21.1551 2.99216 21.0967 2.92035C21.0907 2.91277 21.084 2.90481 21.0774 2.89685C21.0149 2.82182 20.9504 2.75058 20.8853 2.68237C20.8752 2.67195 20.8635 2.65963 20.8551 2.65091C20.7866 2.581 20.7134 2.51279 20.6367 2.44552C20.6268 2.43681 20.616 2.42733 20.6077 2.42032C20.5258 2.35079 20.4383 2.28352 20.3614 2.2282C20.3546 2.22346 20.3394 2.21247 20.3326 2.20773C20.2412 2.14426 20.1444 2.08287 20.0442 2.02622C20.0438 2.02603 20.0436 2.02603 20.0432 2.02584C20.0395 2.02376 20.0355 2.02129 20.0317 2.01921C19.9324 1.96426 19.8276 1.91216 19.7198 1.86384C19.7158 1.86213 19.712 1.86043 19.7081 1.85872C19.2516 1.6575 18.7353 1.5406 18.1307 1.49683C18.0288 1.48925 17.9283 1.48584 17.8298 1.48584C15.184 1.48584 13.9106 3.88666 13.7711 4.16689L11.1908 9.39447L5.91855 10.1605C5.89904 10.1634 5.87952 10.1666 5.86001 10.17C4.4454 10.4233 2.84738 10.7132 1.91441 12.5922C1.89565 12.6301 1.8767 12.6682 1.85908 12.7061C1.83786 12.7514 1.81702 12.7972 1.80129 12.8336C1.76226 12.9236 1.72285 13.0161 1.68439 13.1169C1.64081 13.2311 1.60196 13.3516 1.56824 13.4736C1.55498 13.5212 1.5419 13.5686 1.52693 13.6313C1.5131 13.6889 1.50211 13.7459 1.49264 13.7958C1.46858 13.9202 1.45039 14.0445 1.43769 14.1662C1.43712 14.1726 1.43636 14.1794 1.4358 14.1859C1.28024 15.9599 2.30813 17.3044 2.76363 17.8007C2.78599 17.8251 2.80929 17.8488 2.83316 17.8721L7.08855 22.0206L6.10575 27.7484C6.09344 27.8202 6.08529 27.8926 6.08188 27.9654C6.02371 29.1638 5.95095 30.6555 7.33658 31.9233L7.36367 31.9479C7.42279 32.0013 7.48417 32.0546 7.54916 32.1073C7.57038 32.1245 7.59274 32.1423 7.6151 32.1597L8.72182 30.74L7.63121 32.1722L7.64599 32.1838C7.68881 32.2175 7.7322 32.2511 7.77615 32.2831C7.85592 32.3416 7.93948 32.4004 8.03081 32.4608C8.13123 32.5273 8.2379 32.5915 8.35329 32.6537C8.38891 32.6728 8.42453 32.6901 8.463 32.7088C8.53367 32.7435 8.60396 32.7782 8.67161 32.8072C8.71803 32.8271 8.7635 32.847 8.82015 32.8663C8.82129 32.8667 8.83721 32.8727 8.83834 32.8733C8.8895 32.8949 8.94198 32.9127 8.99523 32.9303C9.05264 32.9495 9.10929 32.9669 9.16651 32.982C9.16822 32.9826 9.19133 32.9891 9.19323 32.9896C9.23453 32.9997 9.27527 33.0124 9.30596 33.0198C9.37872 33.0376 9.45129 33.0527 9.52935 33.0677C9.55891 33.0734 9.58866 33.0793 9.61727 33.0838C9.69723 33.0969 9.77681 33.1075 9.86415 33.1168L9.90963 33.1215C9.99735 33.1298 10.0841 33.135 10.1707 33.138C10.1791 33.1384 10.1882 33.1387 10.1933 33.1387C11.1139 33.1672 11.9271 32.8886 12.4313 32.6582C12.4624 32.644 12.4929 32.6293 12.5228 32.6131L12.8961 32.4165C12.9062 32.4114 12.9162 32.4059 12.926 32.4004C12.938 32.3945 12.9499 32.3884 12.9617 32.3822L17.8294 29.8233L22.687 32.3771C22.6944 32.3809 22.7012 32.3854 22.709 32.3884C22.7095 32.3886 22.7099 32.3888 22.7105 32.389L23.1756 32.634C23.2116 32.6529 23.2484 32.6707 23.2857 32.6872C23.3374 32.71 23.3922 32.7329 23.4375 32.7516C23.4615 32.7615 23.4869 32.7715 23.5118 32.781C23.5481 32.7952 23.5841 32.8092 23.6152 32.8206C23.6442 32.8314 23.6741 32.8418 23.716 32.8564C23.7177 32.857 23.7355 32.8633 23.7372 32.8638L23.7958 32.8837C23.8384 32.8979 23.882 32.9116 23.9223 32.9237L23.9921 32.9443C24.0411 32.9587 24.091 32.9722 24.1493 32.9874L24.1922 32.9982C24.2509 33.0126 24.3098 33.0262 24.3731 33.0395C24.3818 33.0414 24.3883 33.0425 24.3968 33.0442C24.7128 33.1071 25.0287 33.1414 25.337 33.1414C26.1676 33.1414 26.9354 32.9125 27.6194 32.4606C29.5694 31.1711 29.6551 29.693 29.5647 27.8943C29.5609 27.8227 29.5529 27.7513 29.5408 27.6806L28.5696 22.0206L32.9121 17.7878C32.9551 17.7459 32.9957 17.7021 33.0343 17.6561C33.0643 17.6205 33.0972 17.5797 33.1315 17.5365L33.1514 17.5111C33.1785 17.4765 33.2066 17.4399 33.2418 17.3925L33.2645 17.3615C33.2926 17.323 33.3214 17.2823 33.3534 17.2358L33.3814 17.1949C33.4176 17.1417 33.4538 17.086 33.4908 17.0274C33.4919 17.0255 33.5091 16.9979 33.5105 16.9956C33.5448 16.9404 33.5787 16.8829 33.6113 16.8258C33.6257 16.8004 33.6401 16.7743 33.6543 16.7479L33.6662 16.7258C33.6857 16.69 33.7049 16.654 33.7242 16.6163C33.7441 16.5774 33.7636 16.5382 33.7826 16.4994C33.7992 16.4645 33.8157 16.4293 33.8341 16.3885C33.8545 16.3432 33.8748 16.2979 33.8951 16.25C33.9057 16.225 33.9156 16.1992 33.9237 16.1786C33.9737 16.0513 34.0194 15.9222 34.0575 15.8013C34.0605 15.7921 34.0639 15.7816 34.0658 15.7752C34.0677 15.7691 34.0696 15.7631 34.0713 15.757C34.0916 15.689 34.1096 15.6194 34.1308 15.5338L34.1461 15.4694C34.163 15.3953 34.1782 15.3206 34.1901 15.2505L34.2032 15.1704C34.3239 14.4015 34.2358 13.6531 33.9417 12.9456C32.9873 10.6509 31.3601 10.3858 29.772 10.1673Z" fill="#6E6E6E"/>
<path d="M29.6126 10.0079C29.5861 10.0028 29.5594 9.99825 29.5323 9.99446L24.3068 9.23486L21.9691 4.49802C21.9242 4.40707 21.8804 4.31915 21.8385 4.23541C21.7995 4.15753 21.7614 4.08326 21.7233 4.00955C21.7209 4.00444 21.711 3.98549 21.7084 3.98056C21.668 3.90269 21.6284 3.82861 21.592 3.76191C21.5886 3.75547 21.5778 3.73538 21.5744 3.72913C21.5318 3.65107 21.4895 3.57679 21.4529 3.51446C21.4488 3.50707 21.4384 3.48907 21.434 3.48168C21.3895 3.40589 21.3446 3.33351 21.3006 3.26435C21.2938 3.25355 21.2853 3.24029 21.28 3.23176C21.2352 3.16242 21.19 3.09648 21.1373 3.02258C21.129 3.01046 21.1178 2.99492 21.1104 2.98431C21.0537 2.90625 20.9959 2.83216 20.9372 2.76092C20.931 2.75334 20.9245 2.74538 20.9179 2.73743C20.8554 2.6624 20.7911 2.59096 20.7257 2.52294C20.7159 2.51252 20.7041 2.50021 20.6956 2.49149C20.627 2.42157 20.5543 2.35298 20.4772 2.2861C20.4673 2.27738 20.4565 2.26791 20.4482 2.2609C20.3663 2.19117 20.2792 2.12353 20.2017 2.06877C20.1948 2.06385 20.1797 2.05305 20.1731 2.04831C20.0819 1.98465 19.9849 1.92345 19.8847 1.8668C19.8843 1.86661 19.8841 1.86642 19.8837 1.86623C19.8799 1.86414 19.8761 1.86187 19.8722 1.85978C19.7733 1.80427 19.6683 1.75197 19.5603 1.70442C19.5563 1.70271 19.5523 1.70082 19.5484 1.6993C19.0913 1.49941 18.5756 1.38117 17.971 1.33722C17.8692 1.32983 17.7688 1.32642 17.6701 1.32642C15.0245 1.32642 13.7508 3.72724 13.6114 4.00728L11.0311 9.23486L5.75903 10.0011C5.73933 10.0039 5.71981 10.007 5.70049 10.0106C4.28607 10.2639 2.68293 10.5513 1.75489 12.4326C1.73594 12.4705 1.71737 12.5086 1.69975 12.5465C1.67853 12.5918 1.6575 12.6374 1.64196 12.6738C1.60236 12.7636 1.56352 12.8563 1.52506 12.9571C1.48148 13.0715 1.44245 13.1918 1.40891 13.3138C1.39565 13.3614 1.38295 13.409 1.3676 13.4717C1.35415 13.5293 1.34278 13.5863 1.33331 13.6361C1.30906 13.7604 1.29049 13.8849 1.27817 14.0066C1.27741 14.013 1.27685 14.0196 1.27628 14.0263C1.10708 15.7992 2.14842 17.1448 2.6043 17.641C2.62666 17.6655 2.64996 17.6894 2.67365 17.7125L6.92903 21.861L5.94623 27.5888C5.93392 27.6604 5.92596 27.733 5.92236 27.8057C5.864 29.0042 5.79143 30.4957 7.17706 31.7637L7.20415 31.7881C7.26327 31.8415 7.32447 31.8948 7.38946 31.9476C7.41068 31.9649 7.43303 31.9827 7.45558 31.9999L8.56211 30.5802L7.4715 32.0124L7.48628 32.024C7.52929 32.0577 7.57268 32.0913 7.61645 32.1233C7.69621 32.182 7.77977 32.2406 7.8711 32.3012C7.97152 32.3677 8.07857 32.4316 8.19377 32.4941C8.22958 32.5132 8.26482 32.5308 8.30348 32.5492C8.37377 32.5845 8.44426 32.6186 8.51209 32.6477C8.55832 32.6676 8.60455 32.6856 8.66045 32.7069C8.66158 32.7072 8.6775 32.7135 8.67882 32.7139C8.73055 32.7338 8.78247 32.7533 8.83571 32.7709C8.89293 32.7898 8.94977 32.8065 9.00699 32.8226C9.00889 32.8232 9.032 32.8296 9.03371 32.8302C9.07464 32.8418 9.11575 32.8531 9.14626 32.8603C9.2192 32.8785 9.29177 32.8935 9.36965 32.9083C9.3992 32.9141 9.42895 32.9196 9.45756 32.9244C9.53752 32.9376 9.6171 32.9481 9.70444 32.9575L9.74992 32.9621C9.83764 32.9704 9.92442 32.9759 10.011 32.9788C10.0194 32.9791 10.0284 32.9793 10.0336 32.9795C10.9542 33.0047 11.7674 32.7294 12.2718 32.4992C12.3027 32.485 12.3332 32.47 12.3633 32.4541L12.7366 32.2574C12.7466 32.2521 12.7565 32.2468 12.7665 32.2413C12.7785 32.2354 12.7902 32.2294 12.8022 32.2231L17.6699 29.6643L22.5275 32.218C22.5348 32.2218 22.542 32.2256 22.5492 32.2292C22.5498 32.2294 22.5502 32.2298 22.5508 32.23L23.0159 32.4749C23.0519 32.4939 23.0885 32.5117 23.1258 32.528C23.1775 32.5509 23.2323 32.574 23.2778 32.5926C23.3018 32.6025 23.3272 32.6125 23.352 32.6218C23.3882 32.6362 23.4242 32.65 23.4555 32.6616C23.4845 32.6724 23.5142 32.6828 23.5561 32.6974C23.558 32.698 23.5758 32.7042 23.5773 32.7048L23.6359 32.7247C23.6785 32.7389 23.7221 32.7523 23.7624 32.7646L23.832 32.7853C23.8811 32.7995 23.9311 32.8132 23.9892 32.8281L24.0323 32.8387C24.0908 32.8533 24.1499 32.8668 24.2132 32.88C24.2219 32.8819 24.2282 32.8831 24.2367 32.8848C24.5524 32.9492 24.8686 32.982 25.1767 32.982C26.0073 32.982 26.7753 32.7531 27.4593 32.3012C29.4093 31.0116 29.4952 29.5334 29.4046 27.7349C29.401 27.6633 29.393 27.5918 29.3811 27.5212L28.4099 21.861L32.7524 17.6282C32.7954 17.5863 32.836 17.5423 32.8746 17.4965C32.9045 17.4609 32.9375 17.4203 32.9718 17.3769L32.9716 17.3767L32.9917 17.3513C33.0188 17.3167 33.0467 17.2801 33.0821 17.2327L33.1048 17.2017C33.1329 17.1632 33.1617 17.1225 33.1937 17.076L33.2217 17.0351C33.2577 16.9819 33.2941 16.9262 33.3311 16.8676C33.3322 16.8655 33.3494 16.8381 33.3508 16.8358C33.3849 16.7805 33.4192 16.723 33.4516 16.666C33.4661 16.6406 33.4804 16.6145 33.4948 16.5881L33.5067 16.566C33.5262 16.5302 33.5453 16.494 33.5647 16.4565C33.5846 16.4176 33.6041 16.3784 33.6228 16.3396C33.6397 16.3047 33.656 16.2694 33.6744 16.2289C33.695 16.1836 33.7153 16.1383 33.7354 16.0904C33.746 16.0654 33.756 16.0396 33.7638 16.019C33.815 15.892 33.8606 15.7628 33.8978 15.6417C33.9008 15.6326 33.9042 15.622 33.9061 15.6156C33.908 15.6095 33.9099 15.6034 33.9116 15.5976C33.9319 15.5294 33.9499 15.46 33.9711 15.3744L33.9864 15.3098C34.0033 15.2357 34.0185 15.161 34.0304 15.0909L34.0433 15.0108C34.164 14.2421 34.0759 13.4935 33.7818 12.786C32.8276 10.4914 31.2006 10.2262 29.6126 10.0079Z" fill="#606060"/>
<path d="M29.6126 10.0079C29.5861 10.0028 29.5594 9.99825 29.5323 9.99446L24.3068 9.23486L21.9691 4.49802C21.9242 4.40707 21.8804 4.31915 21.8385 4.23541C21.7995 4.15753 21.7614 4.08326 21.7233 4.00955C21.7209 4.00444 21.711 3.98549 21.7084 3.98056C21.668 3.90269 21.6284 3.82861 21.592 3.76191C21.5886 3.75547 21.5778 3.73538 21.5744 3.72913C21.5318 3.65107 21.4895 3.57679 21.4529 3.51446C21.4488 3.50707 21.4384 3.48907 21.434 3.48168C21.3895 3.40589 21.3446 3.33351 21.3006 3.26435C21.2938 3.25355 21.2853 3.24029 21.28 3.23176C21.2352 3.16242 21.19 3.09648 21.1373 3.02258C21.129 3.01046 21.1178 2.99492 21.1104 2.98431C21.0537 2.90625 20.9959 2.83216 20.9372 2.76092C20.931 2.75334 20.9245 2.74538 20.9179 2.73743C20.8554 2.6624 20.7911 2.59096 20.7257 2.52294C20.7159 2.51252 20.7041 2.50021 20.6956 2.49149C20.627 2.42157 20.5543 2.35298 20.4772 2.2861C20.4673 2.27738 20.4565 2.26791 20.4482 2.2609C20.3663 2.19117 20.2792 2.12353 20.2017 2.06877C20.1948 2.06385 20.1797 2.05305 20.1731 2.04831C20.0819 1.98465 19.9849 1.92345 19.8847 1.8668C19.8843 1.86661 19.8841 1.86642 19.8837 1.86623C19.8799 1.86414 19.8761 1.86187 19.8722 1.85978C19.7733 1.80427 19.6683 1.75197 19.5603 1.70442C19.5563 1.70271 19.5523 1.70082 19.5484 1.6993C19.0913 1.49941 18.5756 1.38117 17.971 1.33722C17.8692 1.32983 17.7688 1.32642 17.6701 1.32642C15.0245 1.32642 13.7508 3.72724 13.6114 4.00728L11.0311 9.23486L5.75903 10.0011C5.73933 10.0039 5.71981 10.007 5.70049 10.0106C4.28607 10.2639 2.68293 10.5513 1.75489 12.4326C1.73594 12.4705 1.71737 12.5086 1.69975 12.5465C1.67853 12.5918 1.6575 12.6374 1.64196 12.6738C1.60236 12.7636 1.56352 12.8563 1.52506 12.9571C1.48148 13.0715 1.44245 13.1918 1.40891 13.3138C1.39565 13.3614 1.38295 13.409 1.3676 13.4717C1.35415 13.5293 1.34278 13.5863 1.33331 13.6361C1.30906 13.7604 1.29049 13.8849 1.27817 14.0066C1.27741 14.013 1.27685 14.0196 1.27628 14.0263C1.10708 15.7992 2.14842 17.1448 2.6043 17.641C2.62666 17.6655 2.64996 17.6894 2.67365 17.7125L6.92903 21.861L5.94623 27.5888C5.93392 27.6604 5.92596 27.733 5.92236 27.8057C5.864 29.0042 5.79143 30.4957 7.17706 31.7637L7.20415 31.7881C7.26327 31.8415 7.32447 31.8948 7.38946 31.9476C7.41068 31.9649 7.43303 31.9827 7.45558 31.9999L8.56211 30.5802L7.4715 32.0124L7.48628 32.024C7.52929 32.0577 7.57268 32.0913 7.61645 32.1233C7.69621 32.182 7.77977 32.2406 7.8711 32.3012C7.97152 32.3677 8.07857 32.4316 8.19377 32.4941C8.22958 32.5132 8.26482 32.5308 8.30348 32.5492C8.37377 32.5845 8.44426 32.6186 8.51209 32.6477C8.55832 32.6676 8.60455 32.6856 8.66045 32.7069C8.66158 32.7072 8.6775 32.7135 8.67882 32.7139C8.73055 32.7338 8.78247 32.7533 8.83571 32.7709C8.89293 32.7898 8.94977 32.8065 9.00699 32.8226C9.00889 32.8232 9.032 32.8296 9.03371 32.8302C9.07464 32.8418 9.11575 32.8531 9.14626 32.8603C9.2192 32.8785 9.29177 32.8935 9.36965 32.9083C9.3992 32.9141 9.42895 32.9196 9.45756 32.9244C9.53752 32.9376 9.6171 32.9481 9.70444 32.9575L9.74992 32.9621C9.83764 32.9704 9.92442 32.9759 10.011 32.9788C10.0194 32.9791 10.0284 32.9793 10.0336 32.9795C10.9542 33.0047 11.7674 32.7294 12.2718 32.4992C12.3027 32.485 12.3332 32.47 12.3633 32.4541L12.7366 32.2574C12.7466 32.2521 12.7565 32.2468 12.7665 32.2413C12.7785 32.2354 12.7902 32.2294 12.8022 32.2231L17.6699 29.6643L22.5275 32.218C22.5348 32.2218 22.542 32.2256 22.5492 32.2292C22.5498 32.2294 22.5502 32.2298 22.5508 32.23L23.0159 32.4749C23.0519 32.4939 23.0885 32.5117 23.1258 32.528C23.1775 32.5509 23.2323 32.574 23.2778 32.5926C23.3018 32.6025 23.3272 32.6125 23.352 32.6218C23.3882 32.6362 23.4242 32.65 23.4555 32.6616C23.4845 32.6724 23.5142 32.6828 23.5561 32.6974C23.558 32.698 23.5758 32.7042 23.5773 32.7048L23.6359 32.7247C23.6785 32.7389 23.7221 32.7523 23.7624 32.7646L23.832 32.7853C23.8811 32.7995 23.9311 32.8132 23.9892 32.8281L24.0323 32.8387C24.0908 32.8533 24.1499 32.8668 24.2132 32.88C24.2219 32.8819 24.2282 32.8831 24.2367 32.8848C24.5524 32.9492 24.8686 32.982 25.1767 32.982C26.0073 32.982 26.7753 32.7531 27.4593 32.3012C29.4093 31.0116 29.4952 29.5334 29.4046 27.7349C29.401 27.6633 29.393 27.5918 29.3811 27.5212L28.4099 21.861L32.7524 17.6282C32.7954 17.5863 32.836 17.5423 32.8746 17.4965C32.9045 17.4609 32.9375 17.4203 32.9718 17.3769L32.9716 17.3767L32.9917 17.3513C33.0188 17.3167 33.0467 17.2801 33.0821 17.2327L33.1048 17.2017C33.1329 17.1632 33.1617 17.1225 33.1937 17.076L33.2217 17.0351C33.2577 16.9819 33.2941 16.9262 33.3311 16.8676C33.3322 16.8655 33.3494 16.8381 33.3508 16.8358C33.3849 16.7805 33.4192 16.723 33.4516 16.666C33.4661 16.6406 33.4804 16.6145 33.4948 16.5881L33.5067 16.566C33.5262 16.5302 33.5453 16.494 33.5647 16.4565C33.5846 16.4176 33.6041 16.3784 33.6228 16.3396C33.6397 16.3047 33.656 16.2694 33.6744 16.2289C33.695 16.1836 33.7153 16.1383 33.7354 16.0904C33.746 16.0654 33.756 16.0396 33.7638 16.019C33.815 15.892 33.8606 15.7628 33.8978 15.6417C33.9008 15.6326 33.9042 15.622 33.9061 15.6156C33.908 15.6095 33.9099 15.6034 33.9116 15.5976C33.9319 15.5294 33.9499 15.46 33.9711 15.3744L33.9864 15.3098C34.0033 15.2357 34.0185 15.161 34.0304 15.0909L34.0433 15.0108C34.164 14.2421 34.0759 13.4935 33.7818 12.786C32.8276 10.4914 31.2006 10.2262 29.6126 10.0079Z" fill="white"/>
<path d="M32.1194 13.4774C31.5646 12.1427 30.8719 11.9972 29.2733 11.7782V11.7757L23.1112 10.8803L20.3546 5.29457C19.6405 3.84794 19.2835 3.23708 17.8416 3.13268C16.1257 3.00895 15.2401 4.77465 15.2253 4.80421L12.2267 10.8801L6.01787 11.7823C4.41682 12.0692 3.72315 12.2475 3.20627 13.5994C2.70568 14.9087 3.57385 16.0362 3.92968 16.4239L8.86263 21.2329L7.71991 27.8935C7.64886 29.3572 7.71119 30.0379 8.86357 30.8002C9.85073 31.4524 10.9343 31.131 11.5236 30.862L11.8969 30.6653C11.9406 30.6389 11.9656 30.6223 11.9656 30.6223L11.9641 30.63L17.6696 27.6309L23.3646 30.6249L23.3642 30.6223C23.3642 30.6223 23.3737 30.6281 23.3888 30.6376L23.854 30.8824C24.452 31.1469 25.5041 31.4359 26.4662 30.8004C27.6364 30.0266 27.6827 29.3363 27.6067 27.826L26.4755 21.2331L31.4958 16.3397C31.8346 15.9339 32.6562 14.7683 32.1194 13.4774Z" fill="#EB8225"/>
<g opacity="0.5">
<path d="M18.0153 10.5346C18.0153 13.3157 17.8518 16.107 17.9393 18.8877C19.2799 15.9649 21.1189 13.3515 23.0788 10.8143L20.3548 5.29472C19.6709 3.90948 19.3119 3.29179 18.0151 3.15063L18.0153 10.5346Z" fill="#EB8225"/>
<path d="M22.3905 23.1126C21.3372 23.0893 20.3163 23.253 19.2858 23.4826C18.756 23.6001 18.2336 23.7067 17.7014 23.7422C17.6519 24.0427 17.6161 24.346 17.59 24.6488C17.5805 25.6623 17.565 26.6749 17.5606 27.6883L17.6697 27.6309L23.3648 30.625L23.3644 30.6223C23.3644 30.6223 23.3739 30.6282 23.389 30.6377L23.8542 30.8825C24.3881 31.1188 25.2836 31.3715 26.1532 30.9725C25.6754 30.0295 25.1513 29.1056 24.71 28.1503C23.9353 26.4714 23.1743 24.7866 22.3905 23.1126Z" fill="#EB8225"/>
<path d="M14.6988 22.895C12.2557 25.1011 10.2369 27.6879 8.27808 30.3247C8.43231 30.485 8.62254 30.6401 8.86374 30.7999C9.32283 31.1038 9.80315 31.1945 10.2448 31.1798C10.609 30.3665 10.9754 29.5539 11.4051 28.7679C12.4814 26.7976 13.6762 24.8934 14.6988 22.895Z" fill="#EB8225"/>
<path d="M5.96935 15.0788C6.54383 15.2927 7.1295 15.4729 7.71838 15.6472C7.31177 15.3871 6.91065 15.1201 6.51068 14.8603C5.52276 14.2191 4.51362 13.5994 3.49047 13.0071C3.38815 13.1753 3.29455 13.3688 3.20625 13.5994C3.12838 13.8034 3.08613 14.0037 3.06775 14.1966C4.01493 14.5932 5.15727 14.7768 5.96935 15.0788Z" fill="#EB8225"/>
<path d="M13.1705 8.96729L12.2267 10.8802C13.3499 11.5805 15.203 13.285 15.8976 14.492C15.3224 12.8973 13.9098 10.5814 13.1705 8.96729Z" fill="#EB8225"/>
<path d="M27.7617 15.6304C26.6771 16.0281 25.5899 16.4212 24.5249 16.8678C23.8189 17.1636 22.9655 17.3984 22.2438 17.7631C23.1459 17.5393 24.2286 17.0456 24.8457 17.6634C25.0672 17.8844 24.9056 18.1646 24.714 18.331C24.4203 18.586 24.1132 18.8499 23.8212 19.1296C24.6962 19.861 25.6468 20.4879 26.597 21.1141L31.4958 16.3396C31.7675 16.0154 32.3456 15.2043 32.2916 14.2317C30.7787 14.6878 29.247 15.0853 27.7617 15.6304Z" fill="#EB8225"/>
</g>
<path d="M30.0198 13.5663C29.5456 12.4249 28.9538 12.3012 27.5881 12.1136C27.5881 12.1136 27.5881 12.1119 27.5881 12.1112L22.3213 11.3459L19.9658 6.57246C19.3549 5.33596 19.0502 4.81358 17.8175 4.72452C16.3518 4.61899 15.5942 6.12852 15.5821 6.15391L13.0189 11.3461L7.71213 12.118C6.34451 12.3628 5.75203 12.5142 5.3096 13.67C4.88139 14.7888 5.62318 15.7523 5.92805 16.0842L10.1436 20.1939L9.16767 25.8868C9.10628 27.137 9.15971 27.7196 10.1444 28.3697C10.9883 28.9277 11.9143 28.6533 12.4177 28.4231L12.7368 28.2554C12.7743 28.2323 12.7957 28.2176 12.7957 28.2176L12.795 28.2251L17.6705 25.6616L22.5379 28.2202L22.5375 28.2176C22.5375 28.2176 22.5451 28.2238 22.5578 28.231L22.9559 28.4396C23.4676 28.6664 24.3665 28.9135 25.1888 28.3695C26.1883 27.709 26.2281 27.1186 26.1629 25.8281L25.1962 20.1935L29.487 16.0111C29.7771 15.6651 30.4789 14.6685 30.0198 13.5663Z" fill="#F4C23C"/>
<path opacity="0.9" d="M26.3093 25.8114L26.3075 25.8032L25.2993 20.2257L29.487 16.0112L25.1297 20.1249L25.0935 20.159L25.1018 20.2094L26.0155 25.8417C26.0231 26.0759 26.0329 26.3108 26.0259 26.5386C26.0212 26.7701 25.9996 26.9969 25.9412 27.2065C25.9264 27.3179 25.862 27.4052 25.8266 27.507C25.7764 27.601 25.7061 27.6828 25.6475 27.773L25.4179 27.9979L25.1303 28.2097C25.0503 28.2656 24.9419 28.3136 24.8504 28.3668C24.7521 28.4144 24.6439 28.4381 24.5429 28.4756C24.4358 28.496 24.3276 28.514 24.2189 28.525C24.1088 28.5203 23.9989 28.5366 23.8886 28.5173C23.6683 28.5008 23.4473 28.4399 23.2414 28.371L23.0769 28.3054L23.036 28.2891C23.036 28.2891 23.0313 28.2867 23.0284 28.2857L23.0108 28.2762L22.9316 28.2344L22.64 28.0798L22.3264 27.914L22.3272 27.9142L17.7576 25.4955L17.6701 25.4493L17.5826 25.4955L12.9962 27.9246L13.002 27.8651L12.7012 28.0735C12.6316 28.1231 12.5026 28.1826 12.4063 28.2365C12.3182 28.2848 12.2059 28.3282 12.1036 28.3664C11.894 28.4437 11.6763 28.4936 11.4578 28.5165C11.3489 28.5334 11.2399 28.5218 11.1312 28.5262C11.0234 28.5154 10.9154 28.4981 10.8104 28.4813C10.7124 28.4458 10.6171 28.425 10.5152 28.3835C10.418 28.3308 10.292 28.2662 10.2189 28.2222L9.94735 28.0233C9.86189 27.9517 9.78951 27.8711 9.70861 27.7976C9.64021 27.7148 9.58242 27.6265 9.5216 27.5399C9.48389 27.4407 9.42497 27.3512 9.40071 27.2455C9.37798 27.14 9.33895 27.0395 9.33383 26.9257C9.32303 26.8148 9.30427 26.7051 9.30673 26.5892C9.29802 26.3633 9.30673 26.1322 9.31318 25.9012L10.2369 20.2094L10.2448 20.1598L10.209 20.126L5.92804 16.084L10.0419 20.2253L9.02328 25.8622L9.02177 25.8705L9.02139 25.8798C9.01059 26.117 8.99676 26.354 9.00225 26.5973C8.99789 26.7174 9.01495 26.8417 9.02499 26.9653C9.02897 27.0879 9.07027 27.2127 9.09642 27.3366C9.12522 27.4609 9.19362 27.5765 9.24288 27.6959C9.31375 27.8029 9.38612 27.9126 9.46779 28.0102C9.55873 28.0978 9.64608 28.1921 9.74025 28.2717L10.037 28.4934C10.1647 28.5707 10.2507 28.6112 10.36 28.6722C10.4743 28.7219 10.6088 28.7603 10.7325 28.8011C10.8591 28.8248 10.9851 28.8449 11.1113 28.8579C11.2367 28.8553 11.3652 28.8666 11.4897 28.849C11.7403 28.8248 11.9849 28.7691 12.2182 28.6855C12.3364 28.6414 12.4463 28.6006 12.5644 28.5377C12.5744 28.5322 12.5822 28.5286 12.5911 28.5235V28.5245L12.6921 28.4722C12.7025 28.467 12.7133 28.461 12.7241 28.4551L12.8745 28.3767L17.6705 25.8731L22.4575 28.3729L22.4994 28.3943L22.5356 28.413L22.6148 28.454L22.661 28.4786L22.7507 28.5258V28.5248L22.7734 28.537L22.8522 28.5779L22.8721 28.5881C22.91 28.6067 22.8945 28.5987 22.9079 28.6044L22.9498 28.6217L23.1173 28.6866C23.3619 28.7693 23.6039 28.8327 23.8595 28.8515C23.9847 28.8716 24.1145 28.8555 24.2422 28.8575C24.3695 28.8437 24.4972 28.8223 24.623 28.7971C24.7447 28.7535 24.8718 28.723 24.9874 28.6654C25.1009 28.6008 25.2131 28.5523 25.3273 28.4706L25.613 28.2577L25.8935 27.9822C25.9672 27.8744 26.05 27.7713 26.1108 27.6561C26.1564 27.5345 26.2309 27.4183 26.2495 27.2912C26.3179 27.0401 26.3323 26.7881 26.3338 26.5446C26.3374 26.2989 26.3217 26.0611 26.3099 25.8214V25.8114H26.3093Z" fill="#F4C23C"/>
<path opacity="0.7" d="M17.8295 16.4276C21.9346 16.3108 26.4308 15.6282 29.8662 13.2429C29.413 12.4009 28.8119 12.2809 27.5881 12.1136C27.5881 12.1136 27.5881 12.1119 27.5881 12.1112L22.3213 11.3459L19.9658 6.57246C19.3549 5.33596 19.0503 4.81358 17.8175 4.72452C16.3518 4.61899 15.5943 6.12852 15.5821 6.15391L13.0189 11.3461L7.71216 12.118C6.44041 12.3452 5.83959 12.4941 5.40588 13.4401C8.83176 16.0554 13.6397 16.5473 17.8295 16.4276Z" fill="#F4C23C"/>
<path opacity="0.9" d="M17.9164 6.86514C17.802 6.20786 17.3719 5.66066 16.7006 6.06139C16.1145 6.40984 15.783 7.19028 15.4798 7.76874C15.0361 8.61493 14.1859 10.0339 14.4275 11.0283C14.5957 11.7214 15.2746 11.5023 15.7405 11.2136C16.5304 10.723 17.0043 10.159 17.4384 9.33777C17.8096 8.63388 18.0555 7.6615 17.9164 6.86514Z" fill="#F4C23C"/>
<path opacity="0.9" d="M13.9015 12.339C13.9278 12.1512 13.8617 11.9834 13.6038 11.9318C13.1904 11.8496 12.779 12.2952 12.6147 12.617C12.4101 13.0183 12.7131 13.391 13.1349 13.3227C13.3302 13.2913 13.5089 13.1094 13.6337 12.969C13.7787 12.8055 13.8916 12.6107 13.9098 12.3907C13.9109 12.3708 13.903 12.3562 13.9015 12.339Z" fill="#F4C23C"/>
</svg>
