<svg width="42" height="42" viewBox="0 0 42 42" fill="none" xmlns="http://www.w3.org/2000/svg">
<g clip-path="url(#clip0_7551_3283)">
<path d="M0 0H42V42H0V0Z" fill="url(#paint0_linear_7551_3283)"/>
<path d="M23.6326 21.0937H31.9123C32.1277 21.0943 32.3386 21.0313 32.5182 20.9124C32.6978 20.7936 32.8381 20.6242 32.9217 20.4257C33.0003 20.2242 33.0202 20.0047 32.9792 19.7924C32.9382 19.58 32.8378 19.3837 32.6898 19.226L21.7775 8.3197C21.5706 8.1149 21.2912 8 21 8C20.7088 8 20.4293 8.1149 20.2225 8.3197L9.31021 19.226C9.16217 19.3837 9.06184 19.58 9.02079 19.7924C8.97976 20.0047 8.99971 20.2242 9.07832 20.4257C9.1618 20.6242 9.30221 20.7936 9.48184 20.9124C9.66147 21.0313 9.87228 21.0943 10.0877 21.0937H18.3675L9.31021 30.1323C9.16217 30.29 9.06184 30.4863 9.02079 30.6987C8.97976 30.911 8.99971 31.1305 9.07832 31.332C9.1618 31.5305 9.30221 31.6999 9.48184 31.8187C9.66147 31.9376 9.87228 32.0006 10.0877 32H31.9123C32.1277 32.0006 32.3386 31.9376 32.5182 31.8187C32.6978 31.6999 32.8381 31.5305 32.9217 31.332C33.0003 31.1305 33.0202 30.911 32.9792 30.6987C32.9382 30.4863 32.8378 30.29 32.6898 30.1323L23.6326 21.0937Z" fill="white"/>
</g>
<defs>
<linearGradient id="paint0_linear_7551_3283" x1="-1.04665e-08" y1="24.2177" x2="42.2375" y2="24.1519" gradientUnits="userSpaceOnUse">
<stop stop-color="#B436E0"/>
<stop offset="1" stop-color="#365CE0"/>
</linearGradient>
<clipPath id="clip0_7551_3283">
<rect width="42" height="42" rx="12" fill="white"/>
</clipPath>
</defs>
</svg>
